<svg width="356" height="71" viewBox="0 0 356 71" fill="none" xmlns="http://www.w3.org/2000/svg">
<path d="M95.0593 43.0187C95.0593 49.6314 90.0814 54.8106 83.7247 54.8106C77.3693 54.8106 72.3902 49.6314 72.3902 43.0187V14.6662H60.0352V43.0187C60.0352 56.466 70.4406 67 83.7247 67C97.0089 67 107.414 56.466 107.414 43.0187V14.6662H95.0593V43.0187Z" fill="#16AE68"/>
<path d="M165.926 38.648V63.9531H178.281V38.648C178.281 31.7062 182.941 26.8573 189.614 26.8573H197.86V14.6679H189.614C176.11 14.6679 165.926 24.9764 165.926 38.648Z" fill="#16AE68"/>
<path d="M27.6884 11.6194C14.4054 11.6194 4 22.1534 4 35.6007V63.9531H16.3551V35.6007C16.3551 28.988 21.3329 23.8087 27.6884 23.8087C34.0438 23.8087 39.0217 28.988 39.0217 35.6007V63.9531H51.3767V35.6007C51.3767 22.1534 40.9713 11.6194 27.6884 11.6194Z" fill="#16AE68"/>
<path d="M137.692 5.52469H125.337V14.6691H116.07V26.8585H125.337V39.973C125.337 53.6434 135.521 63.9531 149.025 63.9531H157.271V51.7638H149.025C142.352 51.7638 137.692 46.9149 137.692 39.973V26.8585H157.271V14.6691H137.692V5.52469Z" fill="#16AE68"/>
<path d="M206.52 63.9531H218.875V26.8548H206.52V63.9531Z" fill="#16AE68"/>
<path d="M212.696 4.0016C208.43 4.0016 204.973 7.41218 204.973 11.6199C204.973 15.8277 208.43 19.2383 212.696 19.2383C216.96 19.2383 220.418 15.8277 220.418 11.6199C220.418 7.41218 216.96 4.0016 212.696 4.0016Z" fill="#16AE68"/>
<path d="M267.146 6.13278H247.922V17.1032H267.146C270.829 17.1032 273.716 19.7702 273.716 23.1759C273.716 26.5804 270.829 29.2487 267.146 29.2487H254.099V40.2191L267.146 40.224C270.829 40.224 273.716 42.8898 273.716 46.2955C273.716 49.7012 270.829 52.3694 267.146 52.3694H247.922V63.3398H267.146C276.901 63.3398 284.835 55.6935 284.835 46.2955C284.835 41.8317 283.044 37.7641 280.119 34.7229C283.036 31.6829 284.835 27.6336 284.835 23.1759C284.835 13.7779 276.901 6.13278 267.146 6.13278Z" fill="#16AE68"/>
<path d="M351.999 23.1771C351.999 13.7791 344.064 6.13398 334.31 6.13398H315.086V17.1044H334.31C337.993 17.1044 340.88 19.7714 340.88 23.1771C340.88 26.5816 337.993 29.2487 334.31 29.2487H321.263V40.2191L334.31 40.224C337.993 40.224 340.88 42.891 340.88 46.2967C340.88 49.7024 337.993 52.3694 334.31 52.3694H315.086V63.3398H334.31C344.064 63.3398 351.999 55.6947 351.999 46.2967C351.999 41.8329 350.208 37.7654 347.283 34.7241C350.2 31.6841 351.999 27.6336 351.999 23.1771Z" fill="#16AE68"/>
<path d="M300.87 28.6376C297.458 28.6376 294.691 31.3655 294.691 34.7322C294.691 38.0989 297.458 40.8281 300.87 40.8281C304.281 40.8281 307.048 38.0989 307.048 34.7322C307.048 31.3655 304.281 28.6376 300.87 28.6376" fill="#16AE68"/>
</svg>
