<svg width="60" height="43" viewBox="0 0 60 43" fill="none" xmlns="http://www.w3.org/2000/svg">
<g id="LOGO">
<g id="g12">
<g id="g14">
<g id="g20">
<path id="path22" d="M15.6997 38.8357C15.6997 39.9839 14.8415 40.8833 13.7455 40.8833C12.6497 40.8833 11.7913 39.9839 11.7913 38.8357V33.9123H9.66107V38.8357C9.66107 41.1708 11.4551 43 13.7455 43C16.0359 43 17.8299 41.1708 17.8299 38.8357V33.9123H15.6997V38.8357Z" fill="#16AE68"/>
</g>
<g id="g24">
<path id="path26" d="M27.9185 38.0767V42.4709H30.0487V38.0767C30.0487 36.8713 30.8522 36.0293 32.0027 36.0293H33.4244V33.9126H32.0027C29.6744 33.9126 27.9185 35.7027 27.9185 38.0767Z" fill="#16AE68"/>
</g>
<g id="g28">
<path id="path30" d="M4.0842 33.3832C1.79404 33.3832 0 35.2124 0 37.5476V42.4709H2.13018V37.5476C2.13018 36.3993 2.98843 35.4999 4.0842 35.4999C5.17996 35.4999 6.03821 36.3993 6.03821 37.5476V42.4709H8.1684V37.5476C8.1684 35.2124 6.37436 33.3832 4.0842 33.3832Z" fill="#16AE68"/>
</g>
<g id="g32">
<path id="path34" d="M23.0503 32.3246H20.9201V33.9126H19.3225V36.0292H20.9201V38.3066C20.9201 40.6804 22.6761 42.4707 25.0043 42.4707H26.426V40.354H25.0043C23.8538 40.354 23.0503 39.512 23.0503 38.3066V36.0292H26.426V33.9126H23.0503V32.3246Z" fill="#16AE68"/>
</g>
<path id="path36" d="M34.917 42.4707H37.0472V36.0286H34.917V42.4707Z" fill="#16AE68"/>
<g id="g38">
<path id="path40" d="M35.9822 32.0601C35.2467 32.0601 34.6506 32.6523 34.6506 33.383C34.6506 34.1137 35.2467 34.7059 35.9822 34.7059C36.7173 34.7059 37.3136 34.1137 37.3136 33.383C37.3136 32.6523 36.7173 32.0601 35.9822 32.0601Z" fill="#16AE68"/>
</g>
<g id="g42">
<path id="path44" d="M45.3702 32.4304H42.0556V34.3354H45.3702C46.0052 34.3354 46.5028 34.7985 46.5028 35.3899C46.5028 35.9811 46.0052 36.4445 45.3702 36.4445H43.1207V38.3495L45.3702 38.3503C46.0052 38.3503 46.5028 38.8132 46.5028 39.4046C46.5028 39.996 46.0052 40.4594 45.3702 40.4594H42.0556V42.3644H45.3702C47.052 42.3644 48.42 41.0366 48.42 39.4046C48.42 38.6295 48.1111 37.9232 47.6069 37.3951C48.1098 36.8672 48.42 36.164 48.42 35.3899C48.42 33.758 47.052 32.4304 45.3702 32.4304Z" fill="#16AE68"/>
</g>
<g id="g46">
<path id="path48" d="M60 35.3901C60 33.7582 58.6317 32.4306 56.9502 32.4306H53.6356V34.3356H56.9502C57.5852 34.3356 58.0828 34.7987 58.0828 35.3901C58.0828 35.9813 57.5852 36.4445 56.9502 36.4445H54.7007V38.3495L56.9502 38.3503C57.5852 38.3503 58.0828 38.8134 58.0828 39.4048C58.0828 39.9962 57.5852 40.4594 56.9502 40.4594H53.6356V42.3644H56.9502C58.6317 42.3644 60 41.0368 60 39.4048C60 38.6297 59.6911 37.9234 59.1869 37.3953C59.6898 36.8674 60 36.164 60 35.3901Z" fill="#16AE68"/>
</g>
<g id="g50">
<path id="path52" d="M51.1845 36.3387C50.5961 36.3387 50.1192 36.8124 50.1192 37.397C50.1192 37.9816 50.5961 38.4556 51.1845 38.4556C51.7726 38.4556 52.2496 37.9816 52.2496 37.397C52.2496 36.8124 51.7726 36.3387 51.1845 36.3387Z" fill="#16AE68"/>
</g>
<g id="g54">
<path id="path56" d="M30.0004 24.6254H30C27.5352 24.6254 25.4979 24.0945 24.109 23.0902C22.6283 22.0193 21.8774 20.4172 21.8774 18.3283C21.8774 16.4216 22.43 15.3929 23.0697 14.202C23.8123 12.8196 24.6539 11.2526 24.6539 8.18812V3.7939C24.6539 2.43817 25.676 1.37581 26.9809 1.37581C28.2856 1.37581 29.3077 2.43817 29.3077 3.7939V12.5823C29.3077 14.7096 30.9379 16.3761 33.0193 16.3761C34.761 16.3761 36.1829 15.2072 36.6017 13.5793C36.7116 13.7931 36.8219 14.0001 36.9303 14.202C37.5703 15.3931 38.1228 16.4216 38.1228 18.3283C38.1228 23.8073 33.0338 24.6254 30.0004 24.6254ZM30.6923 7.21064C31.0868 7.07835 31.5631 7.00913 32.094 7.00913C33.94 7.00913 35.3461 7.79484 35.3461 8.18812V12.5823C35.3461 13.9383 34.3241 15.0002 33.0193 15.0002C31.7144 15.0002 30.6923 13.9383 30.6923 12.5823V7.21064ZM38.152 13.5539C37.4531 12.2534 36.7307 10.9085 36.7307 8.18812C36.7307 6.61035 34.3239 5.6333 32.094 5.6333C31.5938 5.6333 31.1222 5.68452 30.6923 5.78337V3.7939C30.6923 1.66643 29.0621 -2.67029e-05 26.9809 -2.67029e-05C24.8997 -2.67029e-05 23.2693 1.66643 23.2693 3.7939V8.18812C23.2693 10.9085 22.5469 12.2534 21.848 13.5541C21.1819 14.7947 20.4928 16.0774 20.4928 18.3283C20.4928 20.8463 21.4616 22.8774 23.2944 24.2027C24.9214 25.3793 27.241 26.0012 30.0004 26.0012C32.7599 26.0012 35.0788 25.3793 36.706 24.2025C38.5386 22.8772 39.5074 20.8461 39.5074 18.3283C39.5074 16.0774 38.8185 14.7947 38.152 13.5539Z" fill="#16AE68"/>
</g>
<g id="g58">
<path id="path60" d="M25.9527 17.6933C25.4037 17.6933 24.9587 18.1355 24.9587 18.681C24.9587 19.2264 25.4037 19.6688 25.9527 19.6688C26.5016 19.6688 26.9468 19.2264 26.9468 18.681C26.9468 18.1355 26.5016 17.6933 25.9527 17.6933Z" fill="#16AE68"/>
</g>
<g id="g62">
<path id="path64" d="M34.0474 17.6933C33.4984 17.6933 33.0534 18.1355 33.0534 18.681C33.0534 19.2264 33.4984 19.6688 34.0474 19.6688C34.5963 19.6688 35.0415 19.2264 35.0415 18.681C35.0415 18.1355 34.5963 17.6933 34.0474 17.6933Z" fill="#16AE68"/>
</g>
<g id="g66">
<path id="path68" d="M26.981 3.21718C25.6856 3.21718 26.0034 5.08832 26.0612 5.92271C26.1525 7.2541 26.2237 8.58782 26.3387 9.9173C26.3775 10.3631 26.3826 11.0938 26.981 11.0938C27.5793 11.0938 27.5845 10.3631 27.623 9.9173C27.738 8.58782 27.8094 7.2541 27.9008 5.92271C27.9583 5.08832 28.2763 3.21718 26.981 3.21718Z" fill="#16AE68"/>
</g>
<g id="g70">
<path id="path72" d="M30.1506 21.4835L31.2587 20.3822C31.2892 20.3519 31.2983 20.3062 31.2819 20.2669C31.2653 20.2273 31.2265 20.2015 31.1835 20.2015H28.8166C28.7736 20.2015 28.7348 20.2273 28.7182 20.2669C28.7018 20.3062 28.7108 20.3519 28.7415 20.3822L29.8494 21.4835L28.7415 22.5846C28.7108 22.6151 28.7018 22.6606 28.7182 22.7C28.7348 22.7398 28.7736 22.7654 28.8166 22.7654H31.1835H31.1854C31.2444 22.7654 31.2919 22.718 31.2919 22.6595C31.2919 22.624 31.2742 22.5922 31.247 22.573L30.1506 21.4835Z" fill="#16AE68"/>
</g>
</g>
</g>
</g>
</svg>
