<svg width="78" height="14" viewBox="0 0 78 14" fill="none" xmlns="http://www.w3.org/2000/svg">
<path d="M5.1733 -1.43051e-05C2.27244 -1.43051e-05 0 2.38269 0 5.42434V11.8374H2.69822V5.42434C2.69822 3.92861 3.78534 2.75711 5.1733 2.75711C6.56127 2.75711 7.64838 3.92861 7.64838 5.42434V11.8374H10.3466V5.42434C10.3466 2.38269 8.07416 -1.43051e-05 5.1733 -1.43051e-05Z" fill="#16AE68"/>
<path d="M19.9956 6.41304C19.9956 7.90878 18.9085 9.08028 17.5203 9.08028C16.1323 9.08028 15.0449 7.90878 15.0449 6.41304V-1.90735e-05H12.3467V6.41304C12.3467 9.4547 14.6191 11.8374 17.5203 11.8374C20.4214 11.8374 22.6938 9.4547 22.6938 6.41304V-1.90735e-05H19.9956V6.41304Z" fill="#16AE68"/>
<path d="M29.4157 8.7738e-05H26.7175V2.06848H24.6938V4.8256H26.7175V7.79198C26.7175 10.8841 28.9417 13.2161 31.8908 13.2161H33.6916V10.4589H31.8908C30.4335 10.4589 29.4157 9.36216 29.4157 7.79198V4.8256H33.6916V2.06848H29.4157V8.7738e-05Z" fill="#16AE68"/>
<path d="M35.6914 5.42417V11.1479H38.3896V5.42417C38.3896 3.85399 39.4074 2.7572 40.8647 2.7572H42.6655V8.2016e-05H40.8647C37.9155 8.2016e-05 35.6914 2.33178 35.6914 5.42417Z" fill="#16AE68"/>
<path d="M46.3522 -0.000110626C45.4205 -0.000110626 44.6655 0.771331 44.6655 1.72309C44.6655 2.67485 45.4205 3.44629 46.3522 3.44629C47.2833 3.44629 48.0386 2.67485 48.0386 1.72309C48.0386 0.771331 47.2833 -0.000110626 46.3522 -0.000110626Z" fill="#16AE68"/>
<path d="M50.0386 8.39136H52.7368V6.10352e-05H50.0386V8.39136Z" fill="#16AE68"/>
<path d="M58.9353 -2.38419e-05H54.7368V2.48139H58.9353C59.7396 2.48139 60.3699 3.08464 60.3699 3.85498C60.3699 4.62505 59.7396 5.22858 58.9353 5.22858H56.0859V7.70999L58.9353 7.71109C59.7396 7.71109 60.3699 8.31408 60.3699 9.08442C60.3699 9.85475 59.7396 10.4583 58.9353 10.4583H54.7368V12.9397H58.9353C61.0655 12.9397 62.7983 11.2102 62.7983 9.08442C62.7983 8.07476 62.4071 7.15471 61.7684 6.4668C62.4054 5.77918 62.7983 4.86326 62.7983 3.85498C62.7983 1.72924 61.0655 -2.38419e-05 58.9353 -2.38419e-05Z" fill="#16AE68"/>
<path d="M66.1477 -7.27177e-05C65.4025 -7.27177e-05 64.7983 0.616971 64.7983 1.37849C64.7983 2.14 65.4025 2.75732 66.1477 2.75732C66.8927 2.75732 67.4968 2.14 67.4968 1.37849C67.4968 0.616971 66.8927 -7.27177e-05 66.1477 -7.27177e-05Z" fill="#16AE68"/>
<path d="M77.5585 3.85501C77.5585 1.72927 75.8255 8.58307e-06 73.6955 8.58307e-06H69.4971V2.48142H73.6955C74.4998 2.48142 75.1301 3.08467 75.1301 3.85501C75.1301 4.62508 74.4998 5.22834 73.6955 5.22834H70.8462V7.70975L73.6955 7.71085C74.4998 7.71085 75.1301 8.31411 75.1301 9.08445C75.1301 9.85479 74.4998 10.458 73.6955 10.458H69.4971V12.9395H73.6955C75.8255 12.9395 77.5585 11.2102 77.5585 9.08445C77.5585 8.07479 77.1673 7.15474 76.5286 6.46684C77.1657 5.77921 77.5585 4.86302 77.5585 3.85501Z" fill="#16AE68"/>
</svg>
