<svg width="12" height="12" viewBox="0 0 12 12" fill="none" xmlns="http://www.w3.org/2000/svg">
<path id="Vector" d="M12 5.14599L9.03091 6L12 6.85365L8.90801 6.84501L11.5139 8.49256L8.54987 7.622L10.5813 9.92922L7.98485 8.26727L9.27742 11.0474L7.25912 8.72901L7.70779 11.7567L6.43122 8.96941L6 12L5.56878 8.96941L4.29221 11.7567L4.74088 8.72901L2.72294 11.0474L4.01515 8.26727L1.41874 9.92922L3.45013 7.622L0.486123 8.49256L3.09199 6.84501L0 6.85365L2.96909 6L0 5.14599L3.09199 5.15463L0.486123 3.50744L3.45013 4.378L1.41874 2.07078L4.01515 3.73273L2.72294 0.952615L4.74088 3.27099L4.29221 0.242922L5.56878 3.03059L6 0L6.43122 3.03059L7.70779 0.242922L7.25912 3.27099L9.27742 0.952615L7.98485 3.73273L10.5813 2.07078L8.54987 4.378L11.5139 3.50744L8.90801 5.15463L12 5.14599Z" fill="#16AE68"/>
</svg>
