<svg width="8" height="12" viewBox="0 0 8 12" fill="none" xmlns="http://www.w3.org/2000/svg">
<path d="M0.679908 10.6159C0.467769 10.7927 0.439107 11.108 0.61589 11.3201C0.792671 11.5322 1.10795 11.5609 1.32009 11.3841L0.679908 10.6159ZM7 6L7.32009 6.38411L7.78103 6L7.32009 5.61589L7 6ZM1.32009 0.615889C1.10795 0.439106 0.792672 0.467769 0.61589 0.679907C0.439108 0.892045 0.46777 1.20733 0.679909 1.38411L1.32009 0.615889ZM1.32009 11.3841L7.32009 6.38411L6.67991 5.61589L0.679908 10.6159L1.32009 11.3841ZM7.32009 5.61589L1.32009 0.615889L0.679909 1.38411L6.67991 6.38411L7.32009 5.61589Z" fill="#A4A4A4"/>
</svg>
