<svg width="8" height="12" viewBox="0 0 8 12" fill="none" xmlns="http://www.w3.org/2000/svg">
<path d="M7.32009 10.6159C7.53223 10.7927 7.56089 11.108 7.38411 11.3201C7.20733 11.5322 6.89205 11.5609 6.67991 11.3841L7.32009 10.6159ZM1 6L0.679908 6.38411L0.218975 6L0.679908 5.61589L1 6ZM6.67991 0.61589C6.89205 0.439107 7.20733 0.46777 7.38411 0.679908C7.56089 0.892047 7.53223 1.20733 7.32009 1.38411L6.67991 0.61589ZM6.67991 11.3841L0.679908 6.38411L1.32009 5.61589L7.32009 10.6159L6.67991 11.3841ZM0.679908 5.61589L6.67991 0.61589L7.32009 1.38411L1.32009 6.38411L0.679908 5.61589Z" fill="#A4A4A4"/>
</svg>
