<svg width="24" height="24" viewBox="0 0 24 24" fill="none" xmlns="http://www.w3.org/2000/svg">
<path d="M5.67991 7.38411C5.46777 7.20733 5.43911 6.89205 5.61589 6.67991C5.79267 6.46777 6.10795 6.43911 6.32009 6.61589L5.67991 7.38411ZM12 12L12.3201 11.6159L12.781 12L12.3201 12.3841L12 12ZM6.32009 17.3841C6.10795 17.5609 5.79267 17.5322 5.61589 17.3201C5.43911 17.108 5.46777 16.7927 5.67991 16.6159L6.32009 17.3841ZM6.32009 6.61589L12.3201 11.6159L11.6799 12.3841L5.67991 7.38411L6.32009 6.61589ZM12.3201 12.3841L6.32009 17.3841L5.67991 16.6159L11.6799 11.6159L12.3201 12.3841Z" fill="#181818"/>
<path d="M10.6799 7.38411C10.4678 7.20733 10.4391 6.89205 10.6159 6.67991C10.7927 6.46777 11.108 6.43911 11.3201 6.61589L10.6799 7.38411ZM17 12L17.3201 11.6159L17.781 12L17.3201 12.3841L17 12ZM11.3201 17.3841C11.108 17.5609 10.7927 17.5322 10.6159 17.3201C10.4391 17.108 10.4678 16.7927 10.6799 16.6159L11.3201 17.3841ZM11.3201 6.61589L17.3201 11.6159L16.6799 12.3841L10.6799 7.38411L11.3201 6.61589ZM17.3201 12.3841L11.3201 17.3841L10.6799 16.6159L16.6799 11.6159L17.3201 12.3841Z" fill="#181818"/>
</svg>
