<svg width="117" height="117" viewBox="0 0 117 117" fill="none" xmlns="http://www.w3.org/2000/svg">
<g clip-path="url(#clip0_609_62205)">
<path d="M40.6878 51.9668C40.6878 50.7334 40.3221 49.5277 39.6368 48.5022C38.9516 47.4767 37.9776 46.6774 36.8381 46.2055C35.6986 45.7335 34.4447 45.61 33.2351 45.8507C32.0254 46.0914 30.9143 46.6854 30.0422 47.5576C29.1701 48.4297 28.5762 49.5409 28.3357 50.7506C28.0952 51.9603 28.2188 53.2142 28.6908 54.3537C29.1629 55.4931 29.9623 56.467 30.9879 57.1521C32.0135 57.8372 33.2192 58.2029 34.4526 58.2027C35.2715 58.2028 36.0824 58.0415 36.839 57.7281C37.5955 57.4148 38.2829 56.9554 38.862 56.3763C39.441 55.7973 39.9002 55.1098 40.2135 54.3532C40.5268 53.5966 40.688 52.7857 40.6878 51.9668ZM29.6017 51.9668C29.6017 51.0075 29.8862 50.0698 30.4191 49.2722C30.952 48.4747 31.7094 47.853 32.5957 47.4859C33.4819 47.1188 34.457 47.0227 35.3979 47.2098C36.3387 47.3968 37.2029 47.8587 37.8812 48.5369C38.5596 49.2152 39.0216 50.0793 39.2088 51.0201C39.396 51.9609 39.3001 52.9361 38.9331 53.8224C38.5661 54.7086 37.9445 55.4662 37.147 55.9992C36.3495 56.5322 35.4118 56.8168 34.4526 56.817C33.1666 56.8156 31.9336 56.3042 31.0242 55.3949C30.1148 54.4857 29.6033 53.2528 29.6017 51.9668ZM24.7523 77.6034C25.9856 77.6033 27.1912 77.2374 28.2166 76.5521C29.242 75.8668 30.0411 74.8929 30.513 73.7534C30.9849 72.6139 31.1083 71.3601 30.8676 70.1505C30.6269 68.9409 30.0329 67.8298 29.1608 66.9578C28.2886 66.0857 27.1775 65.4919 25.9679 65.2513C24.7582 65.0107 23.5044 65.1343 22.365 65.6063C21.2256 66.0783 20.2517 66.8776 19.5665 67.903C18.8813 68.9285 18.5156 70.1341 18.5156 71.3675C18.5155 72.1865 18.6767 72.9975 18.9901 73.7542C19.3034 74.5109 19.7628 75.1984 20.342 75.7775C20.9212 76.3566 21.6087 76.8159 22.3655 77.1292C23.1222 77.4425 23.9332 77.6036 24.7523 77.6034ZM24.7523 66.5173C25.7115 66.5174 26.6492 66.802 27.4467 67.335C28.2442 67.8681 28.8657 68.6256 29.2327 69.5119C29.5997 70.3981 29.6957 71.3733 29.5085 72.3141C29.3212 73.2549 28.8592 74.1191 28.1809 74.7973C27.5026 75.4755 26.6383 75.9374 25.6975 76.1245C24.7567 76.3116 23.7815 76.2155 22.8953 75.8484C22.0091 75.4813 21.2517 74.8596 20.7187 74.062C20.1858 73.2644 19.9014 72.3267 19.9014 71.3675C19.9028 70.0814 20.4143 68.8485 21.3238 67.9392C22.2332 67.0299 23.4662 66.5185 24.7523 66.5173ZM82.9529 45.7308C81.7196 45.731 80.514 46.0968 79.4886 46.7821C78.4632 47.4674 77.664 48.4414 77.1922 49.5809C76.7203 50.7204 76.5969 51.9742 76.8376 53.1838C77.0783 54.3934 77.6722 55.5045 78.5444 56.3765C79.4165 57.2485 80.5277 57.8424 81.7373 58.0829C82.9469 58.3235 84.2007 58.2 85.3402 57.728C86.4796 57.256 87.4535 56.4567 88.1386 55.4312C88.8238 54.4057 89.1895 53.2001 89.1895 51.9668C89.1897 51.1478 89.0285 50.3367 88.7151 49.5801C88.4017 48.8234 87.9423 48.1358 87.3632 47.5567C86.784 46.9776 86.0964 46.5183 85.3397 46.205C84.583 45.8917 83.7719 45.7306 82.9529 45.7308ZM82.9529 56.817C81.9937 56.8168 81.056 56.5322 80.2585 55.9992C79.461 55.4662 78.8394 54.7086 78.4724 53.8224C78.1054 52.9361 78.0095 51.9609 78.1967 51.0201C78.3839 50.0793 78.8459 49.2152 79.5243 48.5369C80.2026 47.8587 81.0668 47.3968 82.0076 47.2098C82.9485 47.0227 83.9236 47.1188 84.8099 47.4859C85.6961 47.853 86.4535 48.4747 86.9864 49.2722C87.5193 50.0698 87.8038 51.0075 87.8038 51.9668C87.8024 53.2528 87.2909 54.4858 86.3815 55.3951C85.472 56.3045 84.239 56.8158 82.9529 56.817ZM86.418 71.3675C86.418 72.6008 86.7838 73.8065 87.469 74.832C88.1543 75.8575 89.1282 76.6568 90.2677 77.1288C91.4072 77.6007 92.6611 77.7242 93.8708 77.4835C95.0805 77.2429 96.1916 76.6489 97.0637 75.7767C97.9358 74.9045 98.5296 73.7933 98.7702 72.5836C99.0107 71.3739 98.8871 70.1201 98.415 68.9806C97.9429 67.8411 97.1435 66.8673 96.118 66.1821C95.0924 65.497 93.8866 65.1314 92.6533 65.1315C91.8344 65.1315 91.0235 65.2927 90.2669 65.6061C89.5103 65.9195 88.8229 66.3788 88.2439 66.9579C87.6649 67.537 87.2056 68.2244 86.8923 68.9811C86.579 69.7377 86.4179 70.5486 86.418 71.3675ZM97.5041 71.3675C97.5041 72.3267 97.2197 73.2644 96.6868 74.062C96.1539 74.8596 95.3964 75.4813 94.5102 75.8484C93.624 76.2155 92.6488 76.3116 91.708 76.1245C90.7672 75.9374 89.903 75.4755 89.2246 74.7973C88.5463 74.1191 88.0843 73.2549 87.8971 72.3141C87.7098 71.3733 87.8058 70.3981 88.1728 69.5119C88.5398 68.6256 89.1613 67.8681 89.9588 67.335C90.7564 66.802 91.694 66.5174 92.6533 66.5173C93.9392 66.5187 95.1721 67.0301 96.0815 67.9394C96.9909 68.8487 97.5025 70.0815 97.5041 71.3675ZM55.9312 22.1729H62.1672C62.3509 22.1729 62.5272 22.0999 62.6571 21.9699C62.787 21.84 62.86 21.6638 62.86 21.48C62.86 21.2962 62.787 21.12 62.6571 20.99C62.5272 20.8601 62.3509 20.7871 62.1672 20.7871H55.9312C55.7475 20.7871 55.5712 20.8601 55.4413 20.99C55.3113 21.12 55.2383 21.2962 55.2383 21.48C55.2383 21.6638 55.3113 21.84 55.4413 21.9699C55.5712 22.0999 55.7475 22.1729 55.9312 22.1729ZM55.9312 27.7159H62.1672C62.3509 27.7159 62.5272 27.6429 62.6571 27.513C62.787 27.383 62.86 27.2068 62.86 27.023C62.86 26.8393 62.787 26.663 62.6571 26.5331C62.5272 26.4032 62.3509 26.3302 62.1672 26.3302H55.9312C55.7475 26.3302 55.5712 26.4032 55.4413 26.5331C55.3113 26.663 55.2383 26.8393 55.2383 27.023C55.2383 27.2068 55.3113 27.383 55.4413 27.513C55.5712 27.6429 55.7475 27.7159 55.9312 27.7159ZM57.2108 46.2942L55.9664 52.8383C55.9081 53.1176 55.9347 53.4079 56.0428 53.672C56.1509 53.936 56.3356 54.1616 56.573 54.3198L57.8976 55.1974C58.1409 55.3505 58.4226 55.4318 58.7101 55.4319C58.9977 55.4319 59.2794 55.3508 59.5228 55.1978L60.8477 54.3195C61.0826 54.1638 61.2647 53.9405 61.3698 53.6791C61.4749 53.4177 61.4981 53.1305 61.4364 52.8556L59.9315 46.2694L58.5806 46.578L60.0817 53.1648L58.7667 54.037C58.7332 54.0467 58.6979 54.0487 58.6635 54.0427L57.3194 53.1353L58.5721 46.5533L57.2108 46.2942ZM64.9387 39.4949C64.9387 38.2615 64.5729 37.0558 63.8877 36.0303C63.2024 35.0048 62.2285 34.2056 61.089 33.7336C59.9495 33.2616 58.6956 33.1382 57.4859 33.3788C56.2763 33.6195 55.1651 34.2135 54.293 35.0857C53.421 35.9579 52.8271 37.0691 52.5866 38.2788C52.346 39.4885 52.4696 40.7423 52.9417 41.8818C53.4138 43.0212 54.2132 43.9951 55.2388 44.6802C56.2643 45.3654 57.4701 45.731 58.7034 45.7308C59.5224 45.7309 60.3332 45.5696 61.0898 45.2563C61.8464 44.9429 62.5338 44.4836 63.1128 43.9045C63.6918 43.3254 64.1511 42.6379 64.4644 41.8813C64.7777 41.1247 64.9388 40.3138 64.9387 39.4949ZM58.7034 44.3451C57.7441 44.3452 56.8063 44.0609 56.0086 43.528C55.2109 42.9952 54.5892 42.2377 54.222 41.3515C53.8548 40.4652 53.7586 39.49 53.9457 38.5491C54.1328 37.6082 54.5946 36.7439 55.2729 36.0656C55.9512 35.3872 56.8154 34.9252 57.7563 34.738C58.6971 34.5508 59.6724 34.6468 60.5587 35.0139C61.445 35.381 62.2025 36.0026 62.7355 36.8002C63.2685 37.5979 63.5529 38.5356 63.5529 39.4949C63.5514 40.7807 63.04 42.0133 62.1309 42.9226C61.2218 43.8318 59.9892 44.3434 58.7034 44.3451ZM50.3611 80.4067L66.635 81.0157L66.748 81.0177C67.7581 80.9851 68.7372 80.6613 69.5676 80.0853L71.879 78.3207C72.6118 77.7617 72.5766 77.2231 72.49 76.9518C72.4041 76.6805 72.1219 76.2196 71.201 76.1858L68.4011 76.0809L66.7095 77.3727L70.6048 77.5249L68.7272 78.9838C68.1392 79.3768 67.4546 79.6009 66.748 79.6319L50.9579 79.0426L51.6149 78.5317L49.4764 78.4519C49.2989 78.5878 49.1658 78.7733 49.0938 78.985C49.0218 79.1966 49.0143 79.4248 49.0721 79.6407C49.1584 79.9121 49.4402 80.3722 50.3611 80.4067ZM75.6277 54.0454H70.4817V55.4312H76.173C75.946 54.9883 75.7634 54.5242 75.6277 54.0454Z" fill="#333333"/>
<path d="M25.4444 55.4303H27.6716C27.4446 54.9874 27.2617 54.5233 27.1255 54.0446H25.4444C25.077 54.0442 24.7247 53.8981 24.4649 53.6383C24.2051 53.3785 24.059 53.0262 24.0586 52.6588V16.6289C24.059 16.2615 24.2051 15.9093 24.4649 15.6495C24.7247 15.3897 25.077 15.2436 25.4444 15.2432H91.961C92.3284 15.2436 92.6806 15.3897 92.9404 15.6495C93.2002 15.9093 93.3463 16.2616 93.3468 16.6289V49.1944H90.0461C90.2221 49.6426 90.3549 50.1067 90.4426 50.5801H93.3468V52.6588C93.3463 53.0262 93.2002 53.3784 92.9404 53.6382C92.6806 53.898 92.3284 54.0441 91.961 54.0446H90.2795C90.1438 54.5234 89.9609 54.9876 89.7335 55.4303H91.961C92.6954 55.4282 93.3991 55.1355 93.9184 54.6162C94.4378 54.0969 94.7304 53.3932 94.7325 52.6588V16.6289C94.7304 15.8945 94.4378 15.1908 93.9184 14.6715C93.3991 14.1522 92.6954 13.8595 91.961 13.8574H25.4444C24.71 13.8595 24.0062 14.1522 23.4869 14.6715C22.9676 15.1908 22.675 15.8945 22.6729 16.6289V52.6588C22.675 53.3932 22.9676 54.0969 23.4869 54.6162C24.0062 55.1355 24.71 55.4282 25.4444 55.4303Z" fill="#333333"/>
<path d="M75.8608 49.1943H69.8305C70.0059 49.6448 70.1467 50.1081 70.2515 50.5801H75.4643C75.552 50.1066 75.6848 49.6425 75.8608 49.1943ZM24.1714 63.7739C24.3636 63.7597 24.5561 63.7448 24.752 63.7448C25.0285 63.7456 25.3047 63.7612 25.5795 63.7915C25.8297 62.5377 26.4209 61.3772 27.2882 60.4378C28.1555 59.4984 29.2651 58.8166 30.495 58.4673C30.0204 58.1785 29.5785 57.839 29.1772 57.4547C27.8759 57.9978 26.7339 58.8626 25.8583 59.9679C24.9827 61.0732 24.4023 62.3828 24.1714 63.7739ZM91.8255 63.7915C92.1003 63.7612 92.3765 63.7457 92.653 63.7448C92.8492 63.7448 93.0414 63.7597 93.2336 63.7739C93.0028 62.3828 92.4224 61.0732 91.5468 59.9678C90.6712 58.8625 89.5291 57.9978 88.2278 57.4548C87.8263 57.839 87.3844 58.1785 86.9097 58.4673C88.1397 58.8166 89.2494 59.4984 90.1167 60.4378C90.984 61.3772 91.5753 62.5377 91.8255 63.7915ZM99.5825 6.58207C99.8566 6.58207 100.125 6.5008 100.352 6.34853C100.58 6.19626 100.758 5.97983 100.863 5.72662C100.968 5.4734 100.995 5.19477 100.942 4.92596C100.888 4.65715 100.756 4.41023 100.562 4.21643C100.369 4.02263 100.122 3.89064 99.8529 3.83717C99.5841 3.7837 99.3054 3.81115 99.0522 3.91603C98.799 4.02092 98.5826 4.19853 98.4303 4.42642C98.278 4.65431 98.1968 4.92223 98.1968 5.19631C98.1972 5.56371 98.3433 5.91594 98.6031 6.17573C98.8629 6.43552 99.2151 6.58165 99.5825 6.58207ZM99.5825 4.50343C99.7196 4.50343 99.8535 4.54407 99.9675 4.6202C100.081 4.69634 100.17 4.80455 100.223 4.93116C100.275 5.05776 100.289 5.19708 100.262 5.33149C100.235 5.46589 100.169 5.58935 100.072 5.68625C99.9756 5.78315 99.8521 5.84914 99.7177 5.87588C99.5833 5.90261 99.444 5.88889 99.3174 5.83645C99.1908 5.78401 99.0826 5.6952 99.0064 5.58126C98.9303 5.46731 98.8896 5.33335 98.8896 5.19631C98.8898 5.0126 98.9629 4.83647 99.0928 4.70657C99.2227 4.57667 99.3988 4.50361 99.5825 4.50343ZM59.3954 10.7394C59.8065 10.7394 60.2084 10.6175 60.5502 10.389C60.8921 10.1606 61.1585 9.836 61.3158 9.45618C61.4731 9.07636 61.5143 8.65841 61.4341 8.2552C61.3539 7.85198 61.1559 7.4816 60.8652 7.19089C60.5745 6.90019 60.2041 6.70222 59.8009 6.62201C59.3977 6.54181 58.9798 6.58297 58.5999 6.7403C58.2201 6.89763 57.8955 7.16405 57.6671 7.50589C57.4387 7.84772 57.3167 8.2496 57.3167 8.66072C57.3174 9.21182 57.5366 9.74016 57.9263 10.1298C58.316 10.5195 58.8443 10.7387 59.3954 10.7394ZM59.3954 7.6214C59.601 7.6214 59.8019 7.68235 59.9728 7.79655C60.1437 7.91076 60.2769 8.07308 60.3556 8.26299C60.4343 8.4529 60.4548 8.66187 60.4147 8.86348C60.3746 9.06509 60.2757 9.25028 60.1303 9.39563C59.985 9.54098 59.7998 9.63997 59.5982 9.68007C59.3965 9.72017 59.1876 9.69959 58.9977 9.62093C58.8078 9.54226 58.6454 9.40905 58.5312 9.23814C58.417 9.06722 58.3561 8.86628 58.3561 8.66072C58.3563 8.38516 58.4659 8.12096 58.6608 7.92611C58.8556 7.73126 59.1198 7.62167 59.3954 7.6214ZM107.204 50.9265C106.93 50.9265 106.662 51.0078 106.434 51.16C106.206 51.3123 106.029 51.5287 105.924 51.782C105.819 52.0352 105.792 52.3138 105.845 52.5826C105.899 52.8514 106.031 53.0983 106.224 53.2921C106.418 53.4859 106.665 53.6179 106.934 53.6714C107.203 53.7249 107.481 53.6974 107.735 53.5925C107.988 53.4877 108.204 53.31 108.356 53.0821C108.509 52.8543 108.59 52.5863 108.59 52.3123C108.59 51.9449 108.443 51.5926 108.184 51.3328C107.924 51.0731 107.572 50.9269 107.204 50.9265ZM107.204 53.0051C107.067 53.0051 106.933 52.9645 106.819 52.8884C106.705 52.8122 106.617 52.704 106.564 52.5774C106.512 52.4508 106.498 52.3115 106.525 52.1771C106.551 52.0427 106.617 51.9192 106.714 51.8223C106.811 51.7254 106.935 51.6594 107.069 51.6327C107.203 51.606 107.343 51.6197 107.469 51.6721C107.596 51.7246 107.704 51.8134 107.78 51.9273C107.856 52.0413 107.897 52.1752 107.897 52.3123C107.897 52.496 107.824 52.6721 107.694 52.802C107.564 52.9319 107.388 53.005 107.204 53.0051ZM5.35063 40.5333C5.35063 40.2592 5.26936 39.9913 5.11709 39.7634C4.96482 39.5355 4.74839 39.3579 4.49517 39.253C4.24196 39.1481 3.96333 39.1207 3.69452 39.1741C3.4257 39.2276 3.17879 39.3596 2.98498 39.5534C2.79118 39.7472 2.6592 39.9941 2.60573 40.2629C2.55226 40.5317 2.5797 40.8104 2.68459 41.0636C2.78947 41.3168 2.96709 41.5332 3.19498 41.6855C3.42286 41.8378 3.69079 41.919 3.96487 41.919C4.33226 41.9186 4.68449 41.7725 4.94428 41.5127C5.20407 41.2529 5.35021 40.9007 5.35063 40.5333ZM3.27198 40.5333C3.27198 40.3962 3.31262 40.2623 3.38876 40.1483C3.46489 40.0344 3.5731 39.9456 3.69971 39.8931C3.82632 39.8407 3.96563 39.827 4.10004 39.8537C4.23445 39.8804 4.35791 39.9464 4.45481 40.0433C4.55171 40.1402 4.6177 40.2637 4.64443 40.3981C4.67117 40.5325 4.65745 40.6718 4.605 40.7984C4.55256 40.925 4.46375 41.0332 4.34981 41.1094C4.23587 41.1855 4.1019 41.2262 3.96487 41.2262C3.78116 41.226 3.60503 41.1529 3.47513 41.023C3.34523 40.8931 3.27217 40.717 3.27198 40.5333Z" fill="#333333"/>
<path d="M105.818 101.16H103.047V84.5311C103.047 82.8893 102.561 81.2842 101.65 79.9182C100.739 78.5523 99.4438 77.4865 97.9281 76.8553C97.5267 77.2396 97.0847 77.5793 96.6101 77.8682C98.0621 78.2783 99.3408 79.1507 100.252 80.3531C101.164 81.5555 101.658 83.0223 101.661 84.5311V101.16H88.1094C88.3597 100.741 88.4934 100.263 88.4964 99.7745V92.8457C88.4953 92.2729 88.315 91.7148 87.9808 91.2495C87.9564 91.194 87.9348 91.1392 87.905 91.0824L83.7822 83.1955C84.0314 81.9411 84.6222 80.7799 85.4894 79.8399C86.3565 78.8999 87.4664 78.2176 88.6967 77.8682C88.2221 77.5794 87.7803 77.2398 87.3793 76.8553C86.3605 77.2814 85.4365 77.9057 84.6612 78.692C83.8858 79.4783 83.2744 80.4108 82.8626 81.4355L74.5373 65.508C74.3802 65.2213 74.1874 64.9558 73.9635 64.7177C74.0511 63.2828 74.5825 61.9105 75.4841 60.7908C76.3857 59.6711 77.6131 58.8592 78.9963 58.4676C78.5217 58.1789 78.0799 57.8392 77.6789 57.4546C76.3889 57.9933 75.2554 58.8483 74.3829 59.9407C73.5106 61.033 72.9274 62.3276 72.6873 63.7048C72.0192 63.3039 71.2602 63.0792 70.4815 63.0518H69.0957V52.6586C69.0956 51.0167 68.6095 49.4116 67.6986 48.0456C66.7876 46.6796 65.4926 45.6139 63.9769 44.9828C63.576 45.3673 63.1342 45.7069 62.6594 45.9954C64.1115 46.4055 65.3901 47.278 66.3015 48.4805C67.213 49.6829 67.7074 51.1498 67.7099 52.6586V63.0518H49.695V52.6586C49.6975 51.1497 50.192 49.6828 51.1035 48.4803C52.015 47.2778 53.2938 46.4054 54.7459 45.9954C54.2711 45.7066 53.8292 45.3669 53.4281 44.9824C51.9123 45.6136 50.6174 46.6794 49.7064 48.0455C48.7955 49.4115 48.3093 51.0167 48.3093 52.6586V63.0518H46.9235C46.1448 63.0792 45.3858 63.3039 44.7177 63.7048C44.4775 62.3277 43.8943 61.0332 43.022 59.9409C42.1497 58.8485 41.0163 57.9935 39.7264 57.4546C39.3252 57.839 38.8834 58.1786 38.4086 58.4672C39.7919 58.8591 41.0193 59.6712 41.921 60.7911C42.8227 61.9109 43.3541 63.2833 43.4418 64.7184C43.2177 64.956 43.0248 65.2214 42.8681 65.508L34.5426 81.4349C34.1305 80.4105 33.519 79.4782 32.7437 78.6921C31.9683 77.9059 31.0446 77.2816 30.0261 76.8553C29.6247 77.2396 29.1829 77.5793 28.7083 77.8682C29.9385 78.2176 31.0483 78.8999 31.9154 79.8399C32.7826 80.7799 33.3732 81.9411 33.6224 83.1954L29.4996 91.0824C29.4699 91.1392 29.4482 91.1947 29.4235 91.2508C29.0897 91.7157 28.9097 92.2734 28.9086 92.8457V99.7745C28.9116 100.263 29.0453 100.741 29.296 101.16H15.7438V84.5311C15.7464 83.0223 16.2409 81.5555 17.1524 80.353C18.0639 79.1506 19.3426 78.2783 20.7947 77.8682C20.32 77.5793 19.8781 77.2397 19.4769 76.8553C17.9611 77.4865 16.6662 78.5522 15.7552 79.9182C14.8443 81.2842 14.3582 82.8893 14.3581 84.5311V101.16H11.5865C11.4028 101.16 11.2265 101.233 11.0966 101.363C10.9667 101.493 10.8937 101.669 10.8937 101.853C10.8937 102.037 10.9667 102.213 11.0966 102.343C11.2265 102.473 11.4028 102.546 11.5865 102.546H105.818C106.002 102.546 106.178 102.473 106.308 102.343C106.438 102.213 106.511 102.037 106.511 101.853C106.511 101.669 106.438 101.493 106.308 101.363C106.178 101.233 106.002 101.16 105.818 101.16ZM44.0961 66.1495C44.4008 65.663 44.8153 65.2547 45.3063 64.9574C45.7973 64.6601 46.3512 64.4821 46.9235 64.4376H70.4815C71.0539 64.4821 71.6079 64.6602 72.099 64.9576C72.5901 65.255 73.0046 65.6635 73.3092 66.1502L85.8196 90.0837C85.7871 90.083 85.7574 90.0742 85.7249 90.0742H31.6801C31.6476 90.0742 31.6175 90.083 31.5854 90.0837L44.0961 66.1495ZM80.8747 94.2315H87.1106V95.6172H78.1032C77.9194 95.6172 77.7432 95.6902 77.6132 95.8202C77.4833 95.9501 77.4103 96.1264 77.4103 96.3101C77.4103 96.4939 77.4833 96.6701 77.6132 96.8001C77.7432 96.93 77.9194 97.003 78.1032 97.003H87.1106V98.3888H80.8747C80.6909 98.3888 80.5147 98.4618 80.3848 98.5917C80.2548 98.7217 80.1818 98.8979 80.1818 99.0817C80.1818 99.2654 80.2548 99.4417 80.3848 99.5716C80.5147 99.7015 80.6909 99.7745 80.8747 99.7745H87.1106C87.1101 100.142 86.964 100.494 86.7042 100.754C86.4444 101.014 86.0922 101.16 85.7249 101.16H31.6801C31.3127 101.16 30.9605 101.014 30.7007 100.754C30.4409 100.494 30.2948 100.142 30.2943 99.7745H36.5303C36.714 99.7745 36.8903 99.7015 37.0202 99.5716C37.1502 99.4417 37.2232 99.2654 37.2232 99.0817C37.2232 98.8979 37.1502 98.7217 37.0202 98.5917C36.8903 98.4618 36.714 98.3888 36.5303 98.3888H30.2943V97.003H39.3018C39.4856 97.003 39.6618 96.93 39.7917 96.8001C39.9217 96.6701 39.9947 96.4939 39.9947 96.3101C39.9947 96.1264 39.9217 95.9501 39.7917 95.8202C39.6618 95.6902 39.4856 95.6172 39.3018 95.6172H30.2943V94.2315H36.5303C36.714 94.2315 36.8903 94.1585 37.0202 94.0285C37.1502 93.8986 37.2232 93.7224 37.2232 93.5386C37.2232 93.3548 37.1502 93.1786 37.0202 93.0487C36.8903 92.9187 36.714 92.8457 36.5303 92.8457H30.2943C30.2948 92.4783 30.4409 92.1261 30.7007 91.8663C30.9605 91.6065 31.3127 91.4604 31.6801 91.46H85.7249C86.0922 91.4604 86.4444 91.6066 86.7042 91.8664C86.964 92.1262 87.1102 92.4783 87.1106 92.8457H80.8747C80.6909 92.8457 80.5147 92.9187 80.3848 93.0487C80.2548 93.1786 80.1818 93.3548 80.1818 93.5386C80.1818 93.7224 80.2548 93.8986 80.3848 94.0285C80.5147 94.1585 80.6909 94.2315 80.8747 94.2315ZM8.12213 101.16H4.65773C4.47396 101.16 4.29772 101.233 4.16778 101.363C4.03784 101.493 3.96484 101.669 3.96484 101.853C3.96484 102.037 4.03784 102.213 4.16778 102.343C4.29772 102.473 4.47396 102.546 4.65773 102.546H8.12213C8.3059 102.546 8.48213 102.473 8.61207 102.343C8.74201 102.213 8.81501 102.037 8.81501 101.853C8.81501 101.669 8.74201 101.493 8.61207 101.363C8.48213 101.233 8.3059 101.16 8.12213 101.16Z" fill="#333333"/>
<path d="M1.19288 102.546C1.57555 102.546 1.88576 102.236 1.88576 101.853C1.88576 101.47 1.57555 101.16 1.19288 101.16C0.810214 101.16 0.5 101.47 0.5 101.853C0.5 102.236 0.810214 102.546 1.19288 102.546Z" fill="#333333"/>
<path d="M112.747 101.16H109.283C109.099 101.16 108.923 101.233 108.793 101.363C108.663 101.493 108.59 101.669 108.59 101.853C108.59 102.037 108.663 102.213 108.793 102.343C108.923 102.473 109.099 102.546 109.283 102.546H112.747C112.931 102.546 113.107 102.473 113.237 102.343C113.367 102.213 113.44 102.037 113.44 101.853C113.44 101.669 113.367 101.493 113.237 101.363C113.107 101.233 112.931 101.16 112.747 101.16Z" fill="#333333"/>
<path d="M116.212 102.546C116.595 102.546 116.905 102.236 116.905 101.853C116.905 101.47 116.595 101.16 116.212 101.16C115.83 101.16 115.52 101.47 115.52 101.853C115.52 102.236 115.83 102.546 116.212 102.546Z" fill="#333333"/>
<path d="M51.7737 24.9444H65.6313C65.8151 24.9444 65.9913 24.8714 66.1213 24.7414C66.2512 24.6115 66.3242 24.4352 66.3242 24.2515C66.3242 24.0677 66.2512 23.8915 66.1213 23.7615C65.9913 23.6316 65.8151 23.5586 65.6313 23.5586H51.7737C51.5899 23.5586 51.4137 23.6316 51.2838 23.7615C51.1538 23.8915 51.0808 24.0677 51.0808 24.2515C51.0808 24.4352 51.1538 24.6115 51.2838 24.7414C51.4137 24.8714 51.5899 24.9444 51.7737 24.9444ZM46.2035 76.9423L62.4775 77.5513L62.5905 77.5533C63.6005 77.5207 64.5797 77.1969 65.4101 76.6208L67.7215 74.8562C68.4543 74.2973 68.4191 73.7587 68.3324 73.4874C68.2465 73.216 67.9644 72.7552 67.0435 72.7214L50.7699 72.1124L50.6569 72.1104C49.6469 72.1433 48.6678 72.467 47.8373 73.0428L45.5263 74.8074C44.7938 75.3664 44.8286 75.905 44.9146 76.1763C45.0008 76.4476 45.2826 76.9078 46.2035 76.9423ZM48.678 74.1187C49.2808 73.709 49.9862 73.476 50.7144 73.4461H50.7181L66.4473 74.0604L64.5697 75.5193C63.9816 75.9123 63.297 76.1365 62.5904 76.1675L46.8004 75.5781L48.678 74.1187Z" fill="#9642F4"/>
<path d="M16.1472 18.3697L17.1775 17.0151L16.5269 16.6465L15.8659 18.1639H15.8437L15.1716 16.6569L14.5099 17.0366L15.5292 18.3593V18.3808L13.9355 18.175V18.9122L15.5403 18.7064V18.7279L14.5099 20.0499L15.128 20.4407L15.8333 18.9122H15.8541L16.5048 20.4296L17.1879 20.0395L16.1472 18.7383V18.7168L17.7838 18.9122V18.175L16.1472 18.3912V18.3697Z" fill="#9642F4"/>
<path d="M77.2554 3.16353L76.6616 3.92501L77.0177 4.1495L77.4237 3.26954H77.4362L77.8104 4.14326L78.2039 3.91877L77.6046 3.16907V3.1566L78.5469 3.26954V2.8448L77.6046 2.96952V2.95705L78.1977 2.17687L77.8235 1.96484L77.4424 2.83857H77.43L77.0433 1.97039L76.6616 2.18934L77.2491 2.95081V2.96329L76.3311 2.8448V3.26954L77.2554 3.15106V3.16353Z" fill="#9642F4"/>
<path d="M115.519 26.4779V25.7553L113.914 25.968V25.9465L114.924 24.6175L114.286 24.2559L113.638 25.7442H113.616L112.957 24.2663L112.307 24.639L113.307 25.9361V25.9576L111.744 25.7553V26.4779L113.318 26.2763V26.2978L112.307 27.5949L112.914 27.978L113.605 26.4779H113.626L114.264 27.9669L114.934 27.5845L113.914 26.3082V26.2867L115.519 26.4779Z" fill="#9642F4"/>
<path d="M32.6801 3.81801L34.0651 3.98361V3.36002L32.6801 3.54294V3.52492L33.5517 2.3782L33.0016 2.06641L32.4417 3.35032H32.4237L31.8548 2.07541L31.295 2.39691L32.1576 3.51591V3.53393L30.8086 3.36002V3.98361L32.1666 3.809V3.82771L31.295 4.94672L31.8174 5.27722L32.4147 3.98361H32.432L32.9829 5.26752L33.5607 4.93771L32.6801 3.83672V3.81801Z" fill="#9642F4"/>
<path d="M73.253 105.318H44.152C43.9682 105.318 43.792 105.391 43.6621 105.521C43.5321 105.651 43.4591 105.827 43.4591 106.011C43.4591 106.195 43.5321 106.371 43.6621 106.501C43.792 106.631 43.9682 106.704 44.152 106.704H56.6239V108.09H49.6951C49.5113 108.09 49.3351 108.163 49.2051 108.293C49.0752 108.423 49.0022 108.599 49.0022 108.783C49.0022 108.967 49.0752 109.143 49.2051 109.273C49.3351 109.403 49.5113 109.476 49.6951 109.476H68.4029C68.5866 109.476 68.7629 109.403 68.8928 109.273C69.0228 109.143 69.0957 108.967 69.0957 108.783C69.0957 108.599 69.0228 108.423 68.8928 108.293C68.7629 108.163 68.5866 108.09 68.4029 108.09H60.7812V106.704H73.253C73.4368 106.704 73.613 106.631 73.743 106.501C73.8729 106.371 73.9459 106.195 73.9459 106.011C73.9459 105.827 73.8729 105.651 73.743 105.521C73.613 105.391 73.4368 105.318 73.253 105.318ZM82.9534 105.318H76.0246C75.8408 105.318 75.6646 105.391 75.5346 105.521C75.4047 105.651 75.3317 105.827 75.3317 106.011C75.3317 106.195 75.4047 106.371 75.5346 106.501C75.6646 106.631 75.8408 106.704 76.0246 106.704H82.9534C83.1371 106.704 83.3134 106.631 83.4433 106.501C83.5733 106.371 83.6463 106.195 83.6463 106.011C83.6463 105.827 83.5733 105.651 83.4433 105.521C83.3134 105.391 83.1371 105.318 82.9534 105.318ZM41.3805 105.318H34.4517C34.2679 105.318 34.0917 105.391 33.9617 105.521C33.8318 105.651 33.7588 105.827 33.7588 106.011C33.7588 106.195 33.8318 106.371 33.9617 106.501C34.0917 106.631 34.2679 106.704 34.4517 106.704H41.3805C41.5642 106.704 41.7405 106.631 41.8704 106.501C42.0004 106.371 42.0734 106.195 42.0734 106.011C42.0734 105.827 42.0004 105.651 41.8704 105.521C41.7405 105.391 41.5642 105.318 41.3805 105.318Z" fill="#9642F4"/>
</g>
<defs>
<clipPath id="clip0_609_62205">
<rect width="116.404" height="116.404" fill="white" transform="translate(0.5)"/>
</clipPath>
</defs>
</svg>
