<svg width="117" height="125" viewBox="0 0 117 125" fill="none" xmlns="http://www.w3.org/2000/svg">
<path d="M55.9227 116.768V116.518H55.6727H44.5716C44.2685 116.518 43.9778 116.398 43.7635 116.183C43.5491 115.969 43.4287 115.678 43.4287 115.375C43.4287 115.072 43.5491 114.781 43.7635 114.567C43.9778 114.353 44.2685 114.232 44.5716 114.232H72.4287C72.7318 114.232 73.0225 114.353 73.2369 114.567C73.4512 114.781 73.5716 115.072 73.5716 115.375C73.5716 115.678 73.4512 115.969 73.2369 116.183C73.0225 116.398 72.7318 116.518 72.4287 116.518H61.3277H61.0777V116.768V118.161V118.411H61.3277H67.5537C67.8568 118.411 68.1475 118.531 68.3619 118.746C68.5762 118.96 68.6966 119.251 68.6966 119.554C68.6966 119.857 68.5762 120.148 68.3619 120.362C68.1475 120.576 67.8568 120.697 67.5537 120.697H50.143C49.8399 120.697 49.5492 120.576 49.3349 120.362C49.1206 120.148 49.0002 119.857 49.0002 119.554C49.0002 119.251 49.1206 118.96 49.3349 118.746C49.5492 118.531 49.8399 118.411 50.143 118.411H55.6727H55.9227V118.161V116.768ZM75.7687 114.597C75.9622 114.387 76.2267 114.258 76.5106 114.232H82.2754C82.5593 114.258 82.8239 114.387 83.0173 114.597C83.213 114.809 83.3216 115.087 83.3216 115.375C83.3216 115.664 83.213 115.942 83.0173 116.153C82.8239 116.363 82.5593 116.493 82.2754 116.518H76.5106C76.2267 116.493 75.9622 116.363 75.7687 116.153C75.5731 115.942 75.4644 115.664 75.4644 115.375C75.4644 115.087 75.5731 114.809 75.7687 114.597ZM33.983 114.597C34.1765 114.387 34.441 114.258 34.7249 114.232H40.4897C40.7736 114.258 41.0381 114.387 41.2316 114.597C41.4273 114.809 41.5359 115.087 41.5359 115.375C41.5359 115.664 41.4273 115.942 41.2316 116.153C41.0381 116.363 40.7736 116.493 40.4897 116.518H34.7249C34.441 116.493 34.1765 116.363 33.983 116.153C33.7873 115.942 33.6787 115.664 33.6787 115.375C33.6787 115.087 33.7873 114.809 33.983 114.597Z" fill="#AB68F6" stroke="#F4ECFE" stroke-width="0.5"/>
<path d="M18.2453 61.2862C17.7156 61.5257 17.266 61.9126 16.9502 62.4007C16.6344 62.8888 16.4658 63.4575 16.4644 64.0389V64.0394L18.3483 61.514M18.2453 61.2862L18.3483 61.514M18.2453 61.2862C18.2453 61.2863 18.2453 61.2863 18.2452 61.2863L18.3483 61.514M18.2453 61.2862C18.3315 61.2472 18.4155 61.2034 18.4969 61.1551M18.3483 61.514C18.443 61.4712 18.5352 61.4231 18.6245 61.37M18.4969 61.1551L18.4968 61.1552L18.6245 61.37M18.4969 61.1551L18.6245 61.37M18.4969 61.1551L57.34 38.0554L57.357 38.0452L57.3755 38.0379C58.0979 37.7511 58.9025 37.7511 59.6248 38.0379L59.6433 38.0452L59.6604 38.0554L98.5035 61.1551C98.5849 61.2035 98.6689 61.2473 98.7551 61.2863C99.2848 61.5258 99.7343 61.9127 100.05 62.4007C100.366 62.8888 100.535 63.4575 100.536 64.0389V64.0394V99.3706V99.3714C100.533 100.175 100.212 100.944 99.6429 101.511C99.0738 102.077 98.303 102.395 97.4999 102.394M18.6245 61.37L97.5001 102.144M97.4999 102.394L97.5001 102.144M97.4999 102.394H97.5001V102.144M97.4999 102.394H70.3394H70.0894V102.144V78.466M97.5001 102.144H70.5894H70.3394V101.894V78.4657M70.0894 78.466L70.3394 78.4657M70.0894 78.466V78.4657H70.3394M70.0894 78.466C70.0883 77.4243 69.674 76.4257 68.9374 75.6891C68.2009 74.9525 67.2022 74.5382 66.1606 74.5371H50.8397C49.7981 74.5382 48.7994 74.9525 48.0628 75.6891C47.3263 76.4257 46.912 77.4243 46.9109 78.466V102.144V102.394H46.6609H19.5004H19.5001V102.144L70.3394 78.4657M19.5001 104.68H19.4999C18.0901 104.682 16.7375 104.123 15.7396 103.127C14.7418 102.131 14.1803 100.78 14.1787 99.3705V64.0394C14.1792 63.0182 14.4743 62.0189 15.0285 61.1611C15.5828 60.3034 16.3727 59.6237 17.3035 59.2036L17.3163 59.1978L17.3284 59.1906L56.3163 36.0049C57.003 35.6965 57.7473 35.5371 58.5002 35.5371C59.253 35.5371 59.9973 35.6965 60.6841 36.0049L84.1402 49.954L84.518 50.1787V49.7391V41.555C84.518 41.2519 84.6384 40.9612 84.8528 40.7469C85.0671 40.5325 85.3578 40.4121 85.6609 40.4121H92.6251C92.9282 40.4121 93.2189 40.5325 93.4333 40.7469C93.6476 40.9612 93.768 41.2519 93.768 41.555V55.5374V55.6795L93.8902 55.7522L99.6719 59.1906L99.684 59.1978L99.6968 59.2036C100.628 59.6237 101.418 60.3034 101.972 61.1611C102.526 62.0189 102.821 63.0183 102.822 64.0396V99.3703C102.82 100.78 102.259 102.131 101.261 103.127C100.263 104.123 98.9101 104.682 97.5004 104.68H97.5001H19.5001ZM67.5537 102.394H67.8037V102.144V78.4657V78.4654C67.8032 78.0299 67.63 77.6124 67.3221 77.3045C67.0141 76.9965 66.5966 76.8233 66.1611 76.8228H66.1609H50.8394H50.8391C50.4037 76.8233 49.9862 76.9965 49.6782 77.3045C49.3703 77.6124 49.1971 78.0299 49.1966 78.4654V78.4657V102.144V102.394H49.4466H67.5537ZM87.0537 42.6978H86.8037V42.9478V51.3958V51.538L86.9259 51.6106L91.1045 54.0956L91.4823 54.3202V53.8807V42.9478V42.6978H91.2323H87.0537Z" fill="#333333" stroke="#F4ECFE" stroke-width="0.5"/>
<path d="M80.7857 85.1797H80.5357V85.4297V95.1797V95.4297H80.7857H89.841H90.091L90.091 95.1797L90.0893 85.4297L90.0892 85.1797H89.8393H80.7857ZM27.1607 85.1797H26.9107V85.4297V95.1797V95.4297H27.1607H36.216H36.466L36.466 95.1797L36.4643 85.4297L36.4642 85.1797H36.2143H27.1607ZM58.5 55.6685L58.4997 55.6685C57.3026 55.6699 56.1549 56.1461 55.3084 56.9926C54.4619 57.8391 53.9858 58.9868 53.9844 60.1839V60.1842C53.9844 61.0773 54.2492 61.9503 54.7454 62.6929C55.2416 63.4355 55.9468 64.0143 56.7719 64.356C57.5971 64.6978 58.505 64.7873 59.381 64.613C60.2569 64.4388 61.0615 64.0087 61.693 63.3772C62.3246 62.7457 62.7546 61.9411 62.9289 61.0651C63.1031 60.1892 63.0137 59.2812 62.6719 58.4561C62.3301 57.631 61.7513 56.9257 61.0088 56.4296C60.2662 55.9334 59.3931 55.6685 58.5 55.6685ZM91.6314 96.9718C91.156 97.4473 90.5114 97.7147 89.839 97.7154H80.786C80.1136 97.7147 79.469 97.4473 78.9936 96.9718C78.5181 96.4964 78.2507 95.8518 78.25 95.1794V85.43C78.2507 84.7576 78.5181 84.113 78.9936 83.6375C79.469 83.1621 80.1136 82.8947 80.786 82.894H89.839C90.5114 82.8947 91.156 83.1621 91.6314 83.6375C92.1069 84.113 92.3743 84.7576 92.375 85.43V95.1794C92.3743 95.8518 92.1069 96.4964 91.6314 96.9718ZM38.0064 96.9718C37.531 97.4473 36.8864 97.7147 36.214 97.7154H27.161C26.4886 97.7147 25.844 97.4473 25.3686 96.9718C24.8932 96.4964 24.6258 95.8519 24.625 95.1796V85.4298C24.6258 84.7575 24.8932 84.1129 25.3686 83.6375C25.844 83.1621 26.4886 82.8947 27.161 82.894H36.214C36.8864 82.8947 37.531 83.1621 38.0064 83.6375C38.4819 84.113 38.7493 84.7576 38.75 85.43V95.1794C38.7493 95.8518 38.4819 96.4964 38.0064 96.9718ZM62.2786 65.8393C61.1602 66.5866 59.8454 66.9854 58.5003 66.9855C56.697 66.9835 54.9682 66.2662 53.693 64.9911C52.4179 63.716 51.7007 61.9872 51.6987 60.1839C51.6987 58.8388 52.0976 57.5239 52.8449 56.4055C53.5922 55.2871 54.6545 54.4153 55.8972 53.9005C57.14 53.3858 58.5075 53.2511 59.8269 53.5135C61.1462 53.7759 62.3581 54.4237 63.3093 55.3749C64.2605 56.3261 64.9082 57.5379 65.1707 58.8573C65.4331 60.1766 65.2984 61.5441 64.7836 62.7869C64.2688 64.0297 63.3971 65.0919 62.2786 65.8393Z" fill="#AB68F6" stroke="#F4ECFE" stroke-width="0.5"/>
<path d="M35.8662 79.608H27.5091C27.206 79.608 26.9153 79.4876 26.7009 79.2733C26.4866 79.0589 26.3662 78.7682 26.3662 78.4651C26.3662 78.162 26.4866 77.8713 26.7009 77.657C26.9153 77.4427 27.206 77.3223 27.5091 77.3223H35.8662C36.1693 77.3223 36.46 77.4427 36.6743 77.657C36.8887 77.8713 37.0091 78.162 37.0091 78.4651C37.0091 78.7682 36.8887 79.0589 36.6743 79.2733C36.46 79.4876 36.1693 79.608 35.8662 79.608ZM89.4912 79.608H81.1341C80.831 79.608 80.5403 79.4876 80.326 79.2733C80.1116 79.0589 79.9912 78.7682 79.9912 78.4651C79.9912 78.162 80.1116 77.8713 80.326 77.657C80.5403 77.4427 80.831 77.3223 81.1341 77.3223H89.4912C89.7943 77.3223 90.085 77.4427 90.2993 77.657C90.5137 77.8713 90.6341 78.162 90.6341 78.4651C90.6341 78.7682 90.5137 79.0589 90.2994 79.2733C90.085 79.4876 89.7943 79.608 89.4912 79.608Z" fill="#333333" stroke="#F4ECFE" stroke-width="0.5"/>
<path d="M2.53571 109.805C2.53571 110.436 2.02404 110.948 1.39286 110.948C0.761675 110.948 0.25 110.436 0.25 109.805C0.25 109.174 0.761675 108.662 1.39286 108.662C2.02404 108.662 2.53571 109.174 2.53571 109.805Z" fill="#333333" stroke="#F4ECFE" stroke-width="0.5"/>
<path d="M108.531 108.997L108.355 108.82L108.531 108.997C108.746 108.783 109.036 108.662 109.339 108.662H111.429C111.732 108.662 112.023 108.783 112.237 108.997L112.413 108.82L112.237 108.997C112.451 109.211 112.572 109.502 112.572 109.805C112.572 110.108 112.451 110.399 112.237 110.613L112.414 110.79L112.237 110.613C112.023 110.827 111.732 110.948 111.429 110.948H109.339C109.036 110.948 108.746 110.827 108.531 110.613L108.355 110.79L108.531 110.613C108.317 110.399 108.197 110.108 108.197 109.805C108.197 109.502 108.317 109.211 108.531 108.997ZM5.57157 108.662H7.66085C7.96396 108.662 8.25465 108.783 8.46898 108.997C8.6833 109.211 8.80371 109.502 8.80371 109.805C8.80371 110.108 8.6833 110.399 8.46898 110.613C8.25465 110.827 7.96396 110.948 7.66085 110.948H5.57157C5.26846 110.948 4.97777 110.827 4.76345 110.613C4.54912 110.399 4.42871 110.108 4.42871 109.805C4.42871 109.502 4.54912 109.211 4.76345 108.997C4.97777 108.783 5.26846 108.662 5.57157 108.662Z" fill="#333333" stroke="#F4ECFE" stroke-width="0.5"/>
<path d="M11.8391 108.662H105.161C105.464 108.662 105.754 108.783 105.969 108.997L106.145 108.82L105.969 108.997C106.183 109.211 106.303 109.502 106.303 109.805C106.303 110.108 106.183 110.399 105.969 110.613L106.145 110.79L105.969 110.613C105.754 110.827 105.464 110.948 105.161 110.948H11.8391C11.536 110.948 11.2454 110.827 11.031 110.613C10.8167 110.399 10.6963 110.108 10.6963 109.805C10.6963 109.502 10.8167 109.211 11.031 108.997C11.2454 108.783 11.536 108.662 11.8391 108.662Z" fill="#333333" stroke="#F4ECFE" stroke-width="0.5"/>
<path d="M116.75 109.805C116.75 110.436 116.238 110.948 115.607 110.948C114.976 110.948 114.464 110.436 114.464 109.805C114.464 109.174 114.976 108.662 115.607 108.662C116.238 108.662 116.75 109.174 116.75 109.805Z" fill="#333333" stroke="#F4ECFE" stroke-width="0.5"/>
<path d="M34.2286 22.0547C34.6418 22.0547 35.0457 21.9322 35.3893 21.7026C35.7329 21.473 36.0007 21.1467 36.1588 20.7649C36.3169 20.3832 36.3583 19.9631 36.2777 19.5578C36.1971 19.1525 35.9981 18.7802 35.7059 18.4881C35.4137 18.1959 35.0414 17.9969 34.6362 17.9163C34.2309 17.8356 33.8108 17.877 33.429 18.0352C33.0472 18.1933 32.7209 18.4611 32.4914 18.8047C32.2618 19.1482 32.1393 19.5522 32.1393 19.9654C32.1399 20.5193 32.3602 21.0504 32.7519 21.442C33.1436 21.8337 33.6746 22.0541 34.2286 22.0547ZM34.2286 18.9208C34.4352 18.9208 34.6371 18.982 34.8089 19.0968C34.9807 19.2116 35.1146 19.3748 35.1937 19.5656C35.2727 19.7565 35.2934 19.9666 35.2531 20.1692C35.2128 20.3718 35.1133 20.558 34.9672 20.7041C34.8211 20.8502 34.635 20.9497 34.4324 20.99C34.2297 21.0303 34.0197 21.0096 33.8288 20.9305C33.6379 20.8515 33.4748 20.7176 33.36 20.5458C33.2452 20.374 33.1839 20.172 33.1839 19.9654C33.1842 19.6884 33.2943 19.4229 33.4902 19.227C33.686 19.0312 33.9516 18.921 34.2286 18.9208ZM81.1343 17.1797C80.8589 17.1797 80.5896 17.2614 80.3605 17.4144C80.1315 17.5675 79.9529 17.785 79.8475 18.0395C79.7421 18.294 79.7145 18.5741 79.7682 18.8443C79.822 19.1145 79.9547 19.3626 80.1494 19.5574C80.3442 19.7522 80.5924 19.8849 80.8626 19.9386C81.1328 19.9924 81.4129 19.9648 81.6674 19.8594C81.9219 19.754 82.1394 19.5754 82.2925 19.3464C82.4455 19.1173 82.5272 18.848 82.5272 18.5725C82.5268 18.2033 82.3799 17.8492 82.1188 17.5881C81.8577 17.327 81.5036 17.1801 81.1343 17.1797ZM81.1343 19.269C80.9966 19.269 80.862 19.2281 80.7474 19.1516C80.6329 19.0751 80.5436 18.9663 80.4909 18.8391C80.4382 18.7118 80.4244 18.5718 80.4513 18.4367C80.4782 18.3016 80.5445 18.1775 80.6419 18.0801C80.7393 17.9827 80.8634 17.9164 80.9985 17.8895C81.1336 17.8626 81.2736 17.8764 81.4009 17.9291C81.5281 17.9818 81.6369 18.0711 81.7134 18.1856C81.7899 18.3002 81.8308 18.4348 81.8308 18.5725C81.8306 18.7572 81.7572 18.9342 81.6266 19.0648C81.496 19.1954 81.319 19.2688 81.1343 19.269ZM22.8085 47.7374C22.533 47.7374 22.2637 47.8191 22.0346 47.9721C21.8056 48.1252 21.627 48.3427 21.5216 48.5972C21.4162 48.8517 21.3886 49.1318 21.4424 49.402C21.4961 49.6721 21.6288 49.9203 21.8236 50.1151C22.0184 50.3099 22.2665 50.4426 22.5367 50.4963C22.8069 50.5501 23.087 50.5225 23.3415 50.4171C23.596 50.3116 23.8135 50.1331 23.9666 49.9041C24.1196 49.675 24.2013 49.4057 24.2013 49.1302C24.2009 48.7609 24.054 48.4069 23.7929 48.1458C23.5318 47.8847 23.1777 47.7378 22.8085 47.7374ZM22.8085 49.8267C22.6707 49.8267 22.5361 49.7858 22.4215 49.7093C22.307 49.6328 22.2177 49.524 22.165 49.3967C22.1123 49.2695 22.0985 49.1295 22.1254 48.9944C22.1523 48.8593 22.2186 48.7352 22.316 48.6378C22.4134 48.5404 22.5375 48.4741 22.6726 48.4472C22.8077 48.4203 22.9477 48.4341 23.075 48.4868C23.2022 48.5395 23.311 48.6288 23.3875 48.7433C23.464 48.8578 23.5049 48.9925 23.5049 49.1302C23.5047 49.3149 23.4313 49.4919 23.3007 49.6225C23.1701 49.753 22.9931 49.8265 22.8085 49.8267ZM111.429 26.7473C111.154 26.7473 110.884 26.829 110.655 26.982C110.426 27.1351 110.248 27.3526 110.142 27.6071C110.037 27.8616 110.009 28.1417 110.063 28.4119C110.117 28.682 110.249 28.9302 110.444 29.125C110.639 29.3198 110.887 29.4525 111.157 29.5062C111.427 29.56 111.707 29.5324 111.962 29.427C112.217 29.3215 112.434 29.143 112.587 28.914C112.74 28.6849 112.822 28.4156 112.822 28.1401C112.821 27.7708 112.675 27.4168 112.413 27.1557C112.152 26.8946 111.798 26.7477 111.429 26.7473ZM111.429 28.8366C111.291 28.8366 111.157 28.7957 111.042 28.7192C110.928 28.6427 110.838 28.5339 110.786 28.4066C110.733 28.2794 110.719 28.1394 110.746 28.0043C110.773 27.8692 110.839 27.7451 110.937 27.6477C111.034 27.5503 111.158 27.484 111.293 27.4571C111.428 27.4302 111.568 27.444 111.696 27.4967C111.823 27.5494 111.932 27.6387 112.008 27.7532C112.085 27.8677 112.125 28.0024 112.125 28.1401C112.125 28.3248 112.052 28.5018 111.921 28.6324C111.791 28.7629 111.614 28.8364 111.429 28.8366ZM5.57185 44.3404C5.57185 44.0649 5.49016 43.7956 5.33711 43.5666C5.18406 43.3375 4.96653 43.159 4.71201 43.0536C4.4575 42.9481 4.17745 42.9206 3.90726 42.9743C3.63707 43.028 3.38889 43.1607 3.19409 43.3555C2.9993 43.5503 2.86664 43.7985 2.8129 44.0687C2.75915 44.3389 2.78674 44.6189 2.89216 44.8734C2.99758 45.1279 3.17611 45.3455 3.40516 45.4985C3.63421 45.6516 3.90351 45.7333 4.17899 45.7333C4.54827 45.7328 4.9023 45.586 5.16342 45.3248C5.42454 45.0637 5.57143 44.7097 5.57185 44.3404ZM3.48256 44.3404C3.48256 44.2027 3.52341 44.068 3.59993 43.9535C3.67646 43.839 3.78522 43.7497 3.91248 43.697C4.03973 43.6443 4.17976 43.6305 4.31486 43.6574C4.44995 43.6842 4.57404 43.7506 4.67144 43.8479C4.76884 43.9453 4.83517 44.0694 4.86204 44.2045C4.88891 44.3396 4.87512 44.4797 4.82241 44.6069C4.7697 44.7342 4.68043 44.8429 4.56591 44.9195C4.45138 44.996 4.31673 45.0368 4.17899 45.0368C3.99434 45.0366 3.81731 44.9632 3.68674 44.8326C3.55618 44.7021 3.48275 44.525 3.48256 44.3404Z" fill="#333333"/>
<path d="M9.34214 27.9644L10.3777 26.6029L9.72378 26.2324L9.05939 27.7576H9.03711L8.36227 26.2429L7.69648 26.6245L8.72162 27.954V27.9756L7.11914 27.7687V28.5097L8.73207 28.3029V28.3245L7.69648 29.6533L8.31769 30.0461L9.02666 28.5097H9.04755L9.7015 30.0349L10.3882 29.6428L9.34214 28.3349V28.3134L10.9871 28.5097V27.7687L9.34214 27.9867V27.9644Z" fill="#AB68F6"/>
<path d="M45.0833 36.7869L44.4872 37.5522L44.8452 37.7786L45.2533 36.8934H45.2651L45.6419 37.7723L46.0374 37.546L45.435 36.7931V36.7806L46.3822 36.8934V36.4672L45.435 36.5925V36.58L46.0312 35.7958L45.6551 35.582L45.2721 36.4602H45.2595L44.8702 35.5883L44.4872 35.8077L45.0771 36.5737V36.5863L44.1543 36.4672V36.8934L45.0833 36.7743V36.7869Z" fill="#AB68F6"/>
<path d="M108.159 47.6221V46.8957L106.545 47.1095V47.088L107.561 45.7522L106.919 45.3887L106.268 46.8846H106.246L105.584 45.3991L104.931 45.7738L105.936 47.0775V47.0991L104.364 46.8957V47.6221L105.947 47.4195V47.441L104.931 48.7448L105.541 49.1299L106.236 47.6221H106.256L106.898 49.1187L107.571 48.7343L106.545 47.4515V47.4299L108.159 47.6221Z" fill="#AB68F6"/>
<path d="M66.4055 29.8996L67.2816 28.7477L66.7286 28.4336L66.1659 29.7241H66.1471L65.576 28.4426L65.0133 28.7658L65.8804 29.8905V29.9093L64.5244 29.7338V30.3606L65.8894 30.1858V30.2039L65.0133 31.3286L65.5384 31.6608L66.138 30.3606H66.1561L66.7098 31.6511L67.2906 31.3196L66.4055 30.213V30.1949L67.7976 30.3606V29.7338L66.4055 29.9177V29.8996Z" fill="#AB68F6"/>
<path d="M59.1551 22.5616L59.1548 22.5612L59.1443 22.5699C58.9656 22.7179 58.7371 22.8 58.5 22.8C58.2629 22.8 58.0344 22.7179 57.8557 22.5699L57.8547 22.5691C57.6662 22.4108 55.5027 20.5952 53.3842 18.0506C52.3211 16.7738 51.2731 15.3177 50.4915 13.7993C49.7093 12.2797 49.2 10.7091 49.2 9.19997C49.2 6.81514 50.1782 4.52663 51.9216 2.83828C53.6653 1.14972 56.0315 0.2 58.5 0.2C60.9685 0.2 63.3347 1.14972 65.0784 2.83828C66.8218 4.52663 67.8 6.81514 67.8 9.19997C67.8 12.2288 65.7651 15.487 63.6379 18.0509C61.517 20.6072 59.3471 22.4234 59.1551 22.5616ZM58.3654 20.4454L58.4997 20.5674L58.6342 20.4457C59.9058 19.2953 61.6972 17.4711 63.1726 15.4488C64.6416 13.4351 65.825 11.1882 65.825 9.19997C65.825 7.31483 65.0516 5.50825 63.6773 4.17728C62.3031 2.84652 60.4407 2.09999 58.5 2.09999C56.5593 2.09999 54.6969 2.84652 53.3227 4.17728C51.9484 5.50825 51.175 7.31483 51.175 9.19997C51.175 11.1883 52.3584 13.4323 53.8275 15.4445C55.3028 17.4653 57.0942 19.2894 58.3654 20.4454ZM55.9697 5.54314C56.7181 5.05884 57.5987 4.79998 58.5 4.79998C59.7088 4.79998 60.8668 5.26506 61.7196 6.09096C62.5722 6.91665 63.05 8.03513 63.05 9.19997C63.05 10.0687 62.784 10.9186 62.2849 11.642C61.7857 12.3655 61.0754 12.9304 60.2433 13.2642C59.4111 13.598 58.495 13.6854 57.6112 13.5152C56.7273 13.3449 55.9163 12.9248 55.2804 12.309C54.6445 11.6932 54.2122 10.9094 54.0372 10.0571C53.8621 9.20492 53.9519 8.32149 54.2955 7.51828C54.639 6.715 55.2213 6.02739 55.9697 5.54314ZM57.0719 11.2803C57.4951 11.5541 57.9921 11.7 58.5 11.7C59.1809 11.7 59.8351 11.4381 60.3185 10.97C60.8021 10.5017 61.075 9.86512 61.075 9.19997C61.075 8.70406 60.9231 8.21984 60.6394 7.80858C60.3557 7.3974 59.9531 7.07787 59.4833 6.88943C59.0136 6.70101 58.4971 6.6518 57.9988 6.74778C57.5005 6.84377 57.042 7.08083 56.6815 7.42996C56.3209 7.77915 56.0746 8.22483 55.9747 8.71102C55.8749 9.19726 55.9262 9.70119 56.1219 10.1588C56.3176 10.6163 56.6485 11.0063 57.0719 11.2803Z" fill="#9642F4" stroke="#F4ECFE" stroke-width="0.4"/>
</svg>
