<svg width="119" height="112" viewBox="0 0 119 112" fill="none" xmlns="http://www.w3.org/2000/svg">
<path d="M8.95165 12.6367L11.4389 19.1011L17.9027 21.5884L11.4389 24.0756L8.95165 30.5394L6.46183 24.0782L0 21.5884L6.46437 19.1011L8.95165 12.6367Z" fill="#AB68F6"/>
<path d="M32.4653 22.6388C29.9431 22.6388 27.9238 24.7791 27.9238 27.3045V99.7257C27.9238 102.251 29.9431 104.385 32.4653 104.385H89.973C92.4952 104.385 94.5145 102.251 94.5145 99.7257V27.3045C94.5145 24.7791 92.4952 22.6388 89.973 22.6388H74.8347C74.6341 22.636 74.435 22.673 74.2488 22.7479C74.0627 22.8227 73.8932 22.9337 73.7504 23.0746C73.6075 23.2154 73.4941 23.3833 73.4167 23.5683C73.3392 23.7534 73.2993 23.952 73.2993 24.1527C73.2993 24.3533 73.3392 24.5519 73.4167 24.737C73.4941 24.922 73.6075 25.0899 73.7504 25.2307C73.8932 25.3716 74.0627 25.4826 74.2488 25.5574C74.435 25.6323 74.6341 25.6693 74.8347 25.6665H89.973C90.8053 25.6665 91.4868 26.3417 91.4868 27.3045V99.7257C91.4868 100.689 90.8053 101.358 89.973 101.358H32.4653C31.6329 101.358 30.9515 100.689 30.9515 99.7257V27.3045C30.9515 26.3417 31.6329 25.6665 32.4653 25.6665H47.5858C47.7864 25.6693 47.9856 25.6323 48.1718 25.5574C48.3579 25.4826 48.5273 25.3716 48.6702 25.2307C48.8131 25.0899 48.9265 24.922 49.0039 24.737C49.0814 24.5519 49.1212 24.3533 49.1212 24.1527C49.1212 23.952 49.0814 23.7534 49.0039 23.5683C48.9265 23.3833 48.8131 23.2154 48.6702 23.0746C48.5273 22.9337 48.3579 22.8227 48.1718 22.7479C47.9856 22.673 47.7864 22.636 47.5858 22.6388H32.4653Z" fill="#333333" stroke="#F4ECFE" stroke-width="1.5"/>
<path d="M38.9527 28.6953C36.2278 28.6953 33.9795 30.9277 33.9795 33.6507V56.7189V69.616V83.1931H37.0071V69.616V56.7189V33.6507C37.0071 32.562 37.8438 31.723 38.9527 31.723H47.5862V28.6953H38.9527ZM74.8351 28.6953V31.723H83.4864C84.5953 31.723 85.4319 32.562 85.4319 33.6507V83.2877L76.5381 92.2938H38.9527C37.8438 92.2938 37.0071 91.4607 37.0071 90.3719V86.2207H33.9795V90.3719C33.9795 93.095 36.2278 95.3215 38.9527 95.3215H77.1709C77.3711 95.3214 77.5693 95.2818 77.754 95.2047C77.9387 95.1275 78.1063 95.0144 78.2471 94.872L88.0219 84.973C88.3022 84.6897 88.4594 84.3071 88.4595 83.9086V33.6507C88.4595 30.9277 86.2113 28.6953 83.4864 28.6953H74.8351Z" fill="#333333" stroke="#F4ECFE" stroke-width="1.5"/>
<path d="M80.8899 82.4307C78.8778 82.4307 77.4546 83.65 76.8925 84.7605C76.3304 85.8711 76.3485 86.9367 76.3485 86.9367V93.0215C76.3486 93.3209 76.4375 93.6135 76.6038 93.8624C76.7702 94.1112 77.0066 94.3051 77.2831 94.4197C77.5597 94.5342 77.864 94.5642 78.1576 94.5058C78.4512 94.4474 78.7209 94.3035 78.9326 94.0919L88.0156 85.0148C88.2272 84.8031 88.3712 84.5334 88.4296 84.2398C88.4879 83.9462 88.4579 83.6419 88.3434 83.3653C88.2288 83.0888 88.0349 82.8524 87.786 82.686C87.5372 82.5197 87.2446 82.4308 86.9453 82.4307H80.8899ZM80.8899 85.4583H83.2908L79.3761 89.3671V86.9367C79.3761 86.9367 79.3943 86.5113 79.589 86.1265C79.7838 85.7417 79.8747 85.4583 80.8899 85.4583ZM42.926 43.834C41.2436 43.834 40.0166 45.3226 40.0166 46.9149V77.0909C40.0166 78.6831 41.2436 80.1658 42.926 80.1658H79.4944C81.1767 80.1658 82.4038 78.6831 82.4038 77.0909V46.9149C82.4038 45.3226 81.1767 43.834 79.4944 43.834H73.3208V46.8616H79.4944C79.5078 46.8637 79.3761 46.7767 79.3761 46.916V77.092C79.3761 77.2313 80.0343 77.4035 79.4944 77.1404H42.926C42.6493 77.4035 43.0443 77.2313 43.0443 77.092V46.916C43.0443 46.7767 42.6493 46.3371 42.926 46.8616H70.2932V43.834H42.926Z" fill="#333333" stroke="#F4ECFE" stroke-width="1.5"/>
<path fill-rule="evenodd" clip-rule="evenodd" d="M53.5582 49.913C53.2684 49.9288 52.9892 50.0276 52.754 50.1976L49.5371 52.4502L48.7033 51.5636C48.4289 51.2703 48.0491 51.0979 47.6477 51.0846C47.2462 51.0713 46.8559 51.2181 46.5627 51.4926C46.2694 51.7671 46.0971 52.1467 46.0838 52.5481C46.0705 52.9496 46.2172 53.34 46.4917 53.6332L48.2243 55.4779C48.4735 55.7444 48.8105 55.912 49.1734 55.9498C49.5363 55.9876 49.9006 55.8931 50.1994 55.6837L54.4925 52.6738C54.7651 52.4874 54.9692 52.2168 55.0738 51.9036C55.1784 51.5904 55.1778 51.2518 55.0719 50.939C54.9661 50.6262 54.7609 50.3567 54.4876 50.1713C54.2143 49.986 53.888 49.8949 53.5582 49.9122V49.913ZM53.5582 58.996C53.2684 59.0118 52.9892 59.1105 52.754 59.2805L49.5371 61.5332L48.7033 60.6465C48.4289 60.3532 48.0491 60.1808 47.6477 60.1675C47.2462 60.1542 46.8559 60.3011 46.5627 60.5756C46.2694 60.85 46.0971 61.2297 46.0838 61.6311C46.0705 62.0326 46.2172 62.4229 46.4917 62.7162L48.2243 64.5608C48.4735 64.8274 48.8105 64.995 49.1734 65.0328C49.5363 65.0706 49.9006 64.9761 50.1994 64.7667L54.4925 61.7568C54.7651 61.5703 54.9692 61.2997 55.0738 60.9865C55.1784 60.6733 55.1778 60.3347 55.0719 60.0219C54.9661 59.7091 54.7609 59.4396 54.4876 59.2543C54.2143 59.0689 53.888 58.9778 53.5582 58.9952V58.996ZM53.5582 68.0789C53.2684 68.0947 52.9892 68.1935 52.754 68.3635L49.5371 70.6161L48.7033 69.7295C48.4289 69.4362 48.0491 69.2638 47.6477 69.2505C47.2462 69.2372 46.8559 69.3841 46.5627 69.6585C46.2694 69.933 46.0971 70.3126 46.0838 70.7141C46.0705 71.1155 46.2172 71.5059 46.4917 71.7992L48.2243 73.6438C48.4735 73.9103 48.8105 74.0779 49.1734 74.1157C49.5363 74.1536 49.9006 74.0591 50.1994 73.8496L54.4925 70.8397C54.7651 70.6533 54.9692 70.3827 55.0738 70.0695C55.1784 69.7563 55.1778 69.4177 55.0719 69.1049C54.9661 68.7921 54.7609 68.5226 54.4876 68.3373C54.2143 68.1519 53.888 68.0608 53.5582 68.0782V68.0789Z" fill="#333333" stroke="#F4ECFE" stroke-width="1.5"/>
<path fill-rule="evenodd" clip-rule="evenodd" d="M59.7141 71.0998C59.5135 71.097 59.3143 71.1341 59.1282 71.2089C58.942 71.2837 58.7726 71.3947 58.6297 71.5356C58.4869 71.6764 58.3734 71.8443 58.296 72.0293C58.2186 72.2144 58.1787 72.413 58.1787 72.6137C58.1787 72.8143 58.2186 73.0129 58.296 73.198C58.3734 73.3831 58.4869 73.5509 58.6297 73.6917C58.7726 73.8326 58.942 73.9437 59.1282 74.0185C59.3143 74.0933 59.5135 74.1303 59.7141 74.1275H74.8287C75.0293 74.1303 75.2285 74.0933 75.4146 74.0185C75.6008 73.9437 75.7702 73.8326 75.9131 73.6917C76.0559 73.5509 76.1694 73.3831 76.2468 73.198C76.3242 73.0129 76.3641 72.8143 76.3641 72.6137C76.3641 72.413 76.3242 72.2144 76.2468 72.0293C76.1694 71.8443 76.0559 71.6764 75.9131 71.5356C75.7702 71.3947 75.6008 71.2837 75.4146 71.2089C75.2285 71.1341 75.0293 71.097 74.8287 71.0998H59.7141ZM59.7141 61.9991C59.5135 61.9963 59.3143 62.0334 59.1282 62.1082C58.942 62.183 58.7726 62.294 58.6297 62.4349C58.4869 62.5757 58.3734 62.7436 58.296 62.9286C58.2186 63.1137 58.1787 63.3123 58.1787 63.513C58.1787 63.7136 58.2186 63.9122 58.296 64.0973C58.3734 64.2823 58.4869 64.4502 58.6297 64.591C58.7726 64.7319 58.942 64.843 59.1282 64.9178C59.3143 64.9926 59.5135 65.0296 59.7141 65.0268H74.8287C75.0293 65.0296 75.2285 64.9926 75.4146 64.9178C75.6008 64.843 75.7702 64.7319 75.9131 64.591C76.0559 64.4502 76.1694 64.2823 76.2468 64.0973C76.3242 63.9122 76.3641 63.7136 76.3641 63.513C76.3641 63.3123 76.3242 63.1137 76.2468 62.9286C76.1694 62.7436 76.0559 62.5757 75.9131 62.4349C75.7702 62.294 75.6008 62.183 75.4146 62.1082C75.2285 62.0334 75.0293 61.9963 74.8287 61.9991H59.7141ZM59.7141 52.9162C59.5135 52.9133 59.3143 52.9504 59.1282 53.0252C58.942 53.1 58.7726 53.2111 58.6297 53.3519C58.4869 53.4928 58.3734 53.6606 58.296 53.8457C58.2186 54.0308 58.1787 54.2294 58.1787 54.43C58.1787 54.6306 58.2186 54.8292 58.296 55.0143C58.3734 55.1994 58.4869 55.3672 58.6297 55.5081C58.7726 55.6489 58.942 55.76 59.1282 55.8348C59.3143 55.9096 59.5135 55.9467 59.7141 55.9438H74.8287C75.0293 55.9467 75.2285 55.9096 75.4146 55.8348C75.6008 55.76 75.7702 55.6489 75.9131 55.5081C76.0559 55.3672 76.1694 55.1994 76.2468 55.0143C76.3242 54.8292 76.3641 54.6306 76.3641 54.43C76.3641 54.2294 76.3242 54.0308 76.2468 53.8457C76.1694 53.6606 76.0559 53.4928 75.9131 53.3519C75.7702 53.2111 75.6008 53.1 75.4146 53.0252C75.2285 52.9504 75.0293 52.9133 74.8287 52.9162H59.7141Z" fill="#9642F4" stroke="#F4ECFE" stroke-width="1.5"/>
<path d="M61.2105 13.5566C57.8842 13.5566 55.1552 16.2858 55.1552 19.612H49.3365C47.5546 19.612 46.0723 21.0944 46.0723 22.8761V31.486C46.0723 33.2678 47.5546 34.7502 49.3365 34.7502H73.0846C74.8664 34.7502 76.3488 33.2678 76.3488 31.486V22.8761C76.3488 21.0944 74.8664 19.612 73.0846 19.612H67.2659C67.2659 16.2858 64.5369 13.5566 61.2105 13.5566ZM61.2105 16.5843C62.9006 16.5843 64.2382 17.9222 64.2382 19.612C64.2362 19.9538 64.1763 20.295 64.0608 20.6174C63.9794 20.8458 63.9541 21.0903 63.9869 21.3305C64.0197 21.5707 64.1098 21.7995 64.2494 21.9976C64.3891 22.1958 64.5743 22.3575 64.7895 22.4692C65.0046 22.5809 65.2435 22.6394 65.4859 22.6396H73.0846C73.2433 22.6396 73.3212 22.7183 73.3212 22.8758V31.4853C73.3212 31.6427 73.2434 31.7215 73.0846 31.7215H49.3365C49.1778 31.7215 49.0999 31.6427 49.0999 31.4853V22.8758C49.0999 22.7183 49.1777 22.6396 49.3365 22.6396H56.9352C57.1776 22.6394 57.4165 22.5809 57.6316 22.4692C57.8468 22.3575 58.032 22.1958 58.1717 21.9976C58.3114 21.7995 58.4014 21.5707 58.4342 21.3305C58.467 21.0903 58.4417 20.8458 58.3603 20.6174C58.2442 20.2931 58.1843 19.9497 58.1829 19.606C58.1859 17.9187 59.5225 16.5843 61.2106 16.5843H61.2105Z" fill="#9642F4" stroke="#F4ECFE" stroke-width="1.5"/>
<path d="M14.7859 105.311L15.6756 107.623L17.9878 108.512L15.6756 109.402L14.7859 111.714L13.8953 109.403L11.584 108.512L13.8962 107.623L14.7859 105.311Z" fill="#231F20"/>
<path d="M111.629 94.7793L113.679 100.103L119 102.151L113.679 104.199L111.629 109.523L109.578 104.201L104.257 102.151L109.58 100.103L111.629 94.7793Z" fill="#AB68F6"/>
<path d="M91.6619 0L92.5516 2.3122L94.8638 3.20192L92.5516 4.09162L91.6619 6.40384L90.7713 4.09248L88.46 3.20192L90.7722 2.3122L91.6619 0Z" fill="#231F20"/>
<path d="M97.4117 5.26562L97.8506 6.40634L98.9913 6.84527L97.8506 7.2842L97.4117 8.42492L96.9723 7.28463L95.832 6.84527L96.9727 6.40634L97.4117 5.26562Z" fill="#231F20"/>
</svg>
