<svg width="117" height="116" viewBox="0 0 117 116" fill="none" xmlns="http://www.w3.org/2000/svg">
<g clip-path="url(#clip0_609_62231)">
<path d="M3.0119 102.881C3.0119 103.506 2.50556 104.012 1.88095 104.012C1.25634 104.012 0.75 103.506 0.75 102.881C0.75 102.256 1.25634 101.75 1.88095 101.75C2.50556 101.75 3.0119 102.256 3.0119 102.881Z" fill="#333333" stroke="#F4ECFE" stroke-width="0.5"/>
<path d="M5.22383 103.681L5.04705 103.857L5.22383 103.681C5.01173 103.469 4.89258 103.181 4.89258 102.881C4.89258 102.581 5.01173 102.293 5.22383 102.081C5.43592 101.869 5.72358 101.75 6.02353 101.75H8.09496C8.39491 101.75 8.68257 101.869 8.89466 102.081C9.10676 102.293 9.22591 102.581 9.22591 102.881C9.22591 103.181 9.10676 103.469 8.89466 103.681C8.68257 103.893 8.39491 104.012 8.09496 104.012H6.02353C5.72358 104.012 5.43592 103.893 5.22383 103.681ZM108.904 101.75H110.976C111.276 101.75 111.564 101.869 111.776 102.081C111.988 102.293 112.107 102.581 112.107 102.881C112.107 103.181 111.988 103.469 111.776 103.681C111.564 103.893 111.276 104.012 110.976 104.012H108.904C108.605 104.012 108.317 103.893 108.105 103.681C107.893 103.469 107.774 103.181 107.774 102.881C107.774 102.581 107.893 102.293 108.105 102.081C108.317 101.869 108.605 101.75 108.904 101.75Z" fill="#333333" stroke="#F4ECFE" stroke-width="0.5"/>
<path d="M116.25 102.881C116.25 103.506 115.744 104.012 115.119 104.012C114.495 104.012 113.988 103.506 113.988 102.881C113.988 102.256 114.495 101.75 115.119 101.75C115.744 101.75 116.25 102.256 116.25 102.881Z" fill="#333333" stroke="#F4ECFE" stroke-width="0.5"/>
<path d="M55.9464 109.785V109.535H55.6964H44.6902C44.3903 109.535 44.1026 109.416 43.8905 109.204C43.6784 108.992 43.5593 108.704 43.5593 108.404C43.5593 108.104 43.6784 107.817 43.8905 107.605C44.1026 107.393 44.3903 107.273 44.6902 107.273H72.3093C72.6092 107.273 72.8969 107.393 73.109 107.605C73.3211 107.817 73.4402 108.104 73.4402 108.404C73.4402 108.704 73.3211 108.992 73.109 109.204C72.8969 109.416 72.6092 109.535 72.3093 109.535H61.3031H61.0531V109.785V111.166V111.416H61.3031H67.4759C67.7759 111.416 68.0635 111.535 68.2756 111.748C68.4877 111.96 68.6069 112.247 68.6069 112.547C68.6069 112.847 68.4877 113.135 68.2756 113.347C68.0635 113.559 67.7759 113.678 67.4759 113.678H50.214C49.9141 113.678 49.6264 113.559 49.4143 113.347C49.2022 113.135 49.0831 112.847 49.0831 112.547C49.0831 112.247 49.2022 111.96 49.4143 111.748C49.6264 111.535 49.9141 111.416 50.214 111.416H55.6964H55.9464V111.166V109.785ZM75.6222 107.634C75.8137 107.427 76.0754 107.298 76.3564 107.273H82.0717C82.3526 107.298 82.6144 107.427 82.8058 107.634C82.9994 107.844 83.1069 108.119 83.1069 108.404C83.1069 108.69 82.9994 108.965 82.8058 109.175C82.6144 109.382 82.3526 109.51 82.0717 109.535H76.3564C76.0754 109.51 75.8137 109.382 75.6222 109.175C75.4286 108.965 75.3211 108.69 75.3211 108.404C75.3211 108.119 75.4286 107.844 75.6222 107.634ZM34.1937 107.634C34.3851 107.427 34.6469 107.298 34.9278 107.273H40.6431C40.924 107.298 41.1858 107.427 41.3772 107.634C41.5708 107.844 41.6783 108.119 41.6783 108.404C41.6783 108.69 41.5708 108.965 41.3772 109.174C41.1858 109.382 40.924 109.51 40.6431 109.535H34.9278C34.6469 109.51 34.3851 109.382 34.1937 109.174C34.0001 108.965 33.8926 108.69 33.8926 108.404C33.8926 108.119 34.0001 107.844 34.1937 107.634Z" fill="#9642F4" stroke="#F4ECFE" stroke-width="0.5"/>
<path d="M25.1072 61.2027H25.3572H30.631V58.9408H25.3572H25.1072V58.6908V57.655C25.1072 57.4574 25.0554 57.2632 24.9569 57.0918L25.1737 56.9673L24.9569 57.0918C24.8585 56.9204 24.7169 56.7778 24.5461 56.6782C24.5461 56.6782 24.5461 56.6782 24.5461 56.6782L20.4033 54.2615M25.1072 61.2027L20.4033 54.2615M25.1072 61.2027V61.4527M25.1072 61.2027V61.4527M20.4033 54.2615C20.2303 54.1606 20.0336 54.1074 19.8334 54.1074C19.6331 54.1074 19.4365 54.1606 19.2635 54.2615L15.1206 56.6782M20.4033 54.2615L15.1206 56.6782M15.1206 56.6782C15.1206 56.6782 15.1206 56.6782 15.1206 56.6782C14.9499 56.7778 14.8083 56.9204 14.7098 57.0918C14.6114 57.2632 14.5596 57.4574 14.5596 57.655L15.1206 56.6782ZM25.1072 61.4527V62.4883C25.1072 62.4883 25.1072 62.4884 25.1072 62.4884C25.1071 62.686 25.0553 62.8802 24.9569 63.0516C24.8584 63.223 24.7168 63.3656 24.5461 63.4653C24.5461 63.4653 24.5461 63.4653 24.5461 63.4653L20.4033 65.8819C20.2303 65.9828 20.0336 66.036 19.8334 66.036C19.6331 66.036 19.4365 65.9828 19.2635 65.8819L15.1207 63.4653M25.1072 61.4527L15.1207 63.4653M15.1207 63.4653C14.95 63.3656 14.8083 63.223 14.7099 63.0516C14.6114 62.8802 14.5596 62.686 14.5596 62.4884C14.5596 62.4884 14.5596 62.4883 14.5596 62.4883V57.6551L15.1207 63.4653ZM16.9455 58.2324L16.8215 58.3048V58.4484V61.6954V61.839L16.9455 61.9114L19.7074 63.5222L19.8334 63.5957L19.9593 63.5222L22.7212 61.9114L22.8453 61.839V61.6954V58.4484V58.3048L22.7213 58.2324L19.9594 56.6212L19.8334 56.5477L19.7074 56.6212L16.9455 58.2324Z" fill="#333333" stroke="#F4ECFE" stroke-width="0.5"/>
<path d="M79.007 41.1648L77.4088 39.5646L80.5755 36.3979L80.6771 36.2964L80.6405 36.1575L79.6218 32.2858L79.007 41.1648ZM79.007 41.1648L82.175 37.9969L82.2765 37.8953L82.4154 37.9319L86.2863 38.9506L86.2864 38.9506C86.4775 39.0009 86.6784 39.0003 86.8692 38.9487C87.06 38.8971 87.2339 38.7964 87.3735 38.6566L87.3736 38.6565L90.7916 35.2388C90.9314 35.0991 91.0321 34.9252 91.0838 34.7344C91.1354 34.5436 91.1362 34.3427 91.086 34.1516C91.086 34.1515 91.086 34.1515 91.086 34.1514L89.8656 29.5132C89.8145 29.3195 89.713 29.1428 89.5713 29.0012C89.4296 28.8596 89.2529 28.7581 89.0592 28.7071L84.4208 27.4867L84.4206 27.4866C84.2295 27.4362 84.0286 27.4368 83.8378 27.4884C83.6471 27.5399 83.4732 27.6407 83.3336 27.7805L83.3335 27.7807L79.9162 31.1984L79.7394 31.0216L79.9162 31.1984C79.7764 31.3381 79.6757 31.5121 79.624 31.7029C79.5724 31.8936 79.5716 32.0945 79.6217 32.2857L79.007 41.1648ZM39.5928 80.5787L36.4255 83.746L36.324 83.8475L36.3605 83.9864L37.3792 87.8575C37.3792 87.8575 37.3792 87.8576 37.3792 87.8577C37.4294 88.0488 37.4286 88.2497 37.377 88.4405C37.3253 88.6312 37.2246 88.8052 37.0848 88.9449L37.2616 89.1217L37.0848 88.945L33.6676 92.3629C33.5277 92.5026 33.3538 92.6033 33.163 92.6549C32.9722 92.7066 32.7712 92.7074 32.58 92.6573L27.9418 91.4369C27.7481 91.3858 27.5713 91.2843 27.4297 91.1426C27.288 91.001 27.1865 90.8242 27.1354 90.6305L25.915 85.9922L39.5928 80.5787ZM39.5928 80.5787L37.9942 78.979M39.5928 80.5787L37.9942 78.979M37.9942 78.979L34.8263 82.1468L34.7248 82.2484L34.5859 82.2118L30.7147 81.1931C30.5235 81.1428 30.3226 81.1435 30.1318 81.1952C29.941 81.2468 29.7671 81.3476 29.6275 81.4874L29.6273 81.4875L26.2094 84.9048C26.0696 85.0446 25.9689 85.2185 25.9172 85.4093C25.8656 85.6 25.8648 85.801 25.915 85.9921L37.9942 78.979ZM84.612 29.8759L84.4732 29.8394L84.3716 29.9409L82.0763 32.2369L81.9748 32.3385L82.0114 32.4773L82.8252 35.5696L82.8624 35.7106L83.0034 35.7478L86.095 36.5613L86.2339 36.5978L86.3354 36.4963L88.6314 34.2003L88.7329 34.0988L88.6964 33.9599L87.8825 30.8676L87.8454 30.7266L87.7044 30.6895L84.612 29.8759ZM32.3882 90.2677L32.5271 90.3043L32.6286 90.2027L34.9246 87.9068L35.0262 87.8052L34.9896 87.6663L34.1757 84.5747L34.1386 84.4337L33.9976 84.3966L30.906 83.5827L30.7671 83.5462L30.6656 83.6477L28.3696 85.9437L28.268 86.0452L28.3046 86.1841L29.1185 89.2757L29.1556 89.4167L29.2966 89.4538L32.3882 90.2677Z" fill="#9642F4" stroke="#F4ECFE" stroke-width="0.5"/>
<mask id="path-7-inside-1_609_62231" fill="white">
<path d="M39.7946 48.854L41.3846 50.4436C40.6132 51.8104 40.0098 53.2654 39.5876 54.777H37.3422C36.3234 54.8182 35.3624 55.261 34.6692 56.0087C33.976 56.7564 33.6071 57.7482 33.643 58.7671V61.3733C33.6069 62.3924 33.9758 63.3843 34.669 64.1322C35.3622 64.8801 36.3233 65.3231 37.3422 65.3644H39.5876C40.0106 66.8762 40.6141 68.3314 41.3853 69.6988L39.7933 71.2894C39.103 72.0395 38.7375 73.0321 38.7766 74.0507C38.8156 75.0693 39.256 76.0311 40.0016 76.7262L41.8465 78.5717C42.5438 79.3153 43.5062 79.7537 44.5249 79.7917C45.5435 79.8297 46.536 79.4642 47.2867 78.7747L48.8726 77.1854C50.2394 77.9567 51.6943 78.5603 53.2056 78.9831V81.2291C53.2474 82.2482 53.6909 83.2092 54.4391 83.9023C55.1874 84.5953 56.1796 84.964 57.1988 84.9277H59.8036C60.8227 84.9638 61.8146 84.5951 62.5626 83.902C63.3106 83.209 63.7538 82.248 63.7954 81.2292V78.9831C65.3072 78.5605 66.7623 77.9566 68.1291 77.1848L69.7198 78.7774C70.4706 79.4666 71.4632 79.8313 72.4816 79.7924C73.5 79.7536 74.4618 79.3141 75.1579 78.5698L77.0028 76.7249C77.7467 76.0285 78.1853 75.0663 78.2231 74.048C78.2609 73.0297 77.8947 72.0377 77.2044 71.2881L75.6165 69.6995C76.3872 68.3317 76.9905 66.8763 77.4134 65.3644H79.6568C80.6759 65.3233 81.6372 64.8804 82.3307 64.1325C83.0241 63.3846 83.3932 62.3925 83.3573 61.3733V58.7671C83.3931 57.748 83.0239 56.7561 82.3305 56.0084C81.637 55.2607 80.6758 54.818 79.6568 54.777H77.4135C76.9915 53.2651 76.3881 51.8099 75.6165 50.443L77.2058 48.8526C77.8958 48.1031 78.2616 47.1112 78.2233 46.0931C78.185 45.0751 77.7458 44.1134 77.0015 43.4178L75.1565 41.5706C74.4609 40.8251 73.4985 40.3853 72.4795 40.347C71.4606 40.3088 70.4679 40.6754 69.7184 41.3666L68.129 42.9549C66.7624 42.1831 65.3072 41.5797 63.7954 41.1579V38.9129C63.754 37.8939 63.3109 36.9327 62.5629 36.2394C61.8149 35.5462 60.8228 35.1773 59.8036 35.2134H57.1988C56.1794 35.1771 55.1871 35.5459 54.4388 36.2392C53.6906 36.9324 53.2472 37.8937 53.2056 38.9129V41.1579C51.6938 41.5796 50.2387 42.1829 48.872 42.9546L47.2847 41.3663C46.5341 40.6756 45.541 40.3097 44.5217 40.3484C43.5025 40.387 42.5399 40.8271 41.8438 41.5727L40.0037 43.4152C39.2569 44.1099 38.8157 45.0722 38.7765 46.0914C38.7373 47.1107 39.1034 48.1039 39.7946 48.854ZM41.9557 45.3693L43.7958 43.5264C43.9779 43.3035 44.2378 43.1581 44.523 43.1196C44.8082 43.0812 45.0974 43.1526 45.3319 43.3194L47.6811 45.67C47.9037 45.8928 48.1958 46.0328 48.5089 46.0668C48.822 46.1008 49.1373 46.0269 49.4026 45.8571C51.0789 44.7803 52.934 44.0115 54.8806 43.5868C55.1885 43.5197 55.4643 43.3493 55.662 43.1038C55.8597 42.8584 55.9675 42.5527 55.9675 42.2375V38.9129C55.9675 38.4048 56.5313 37.9753 57.1988 37.9753H59.8036C60.0894 37.9458 60.3757 38.0264 60.6042 38.2006C60.8327 38.3748 60.9862 38.6295 61.0335 38.9129V42.2375C61.0335 42.5527 61.1413 42.8584 61.339 43.1038C61.5367 43.3493 61.8125 43.5197 62.1205 43.5867C64.067 44.0116 65.922 44.7804 67.5984 45.8571C67.8636 46.0267 68.1787 46.1007 68.4916 46.0668C68.8046 46.0329 69.0965 45.8931 69.3192 45.6706L71.6718 43.3194C71.9055 43.1523 72.194 43.0805 72.4787 43.1185C72.7634 43.1565 73.0229 43.3015 73.2045 43.524L75.0474 45.3696C75.2697 45.5511 75.4145 45.8106 75.4523 46.0951C75.4902 46.3796 75.4182 46.6679 75.251 46.9012L72.9004 49.2538C72.6779 49.4766 72.5382 49.7687 72.5045 50.0817C72.4708 50.3948 72.545 50.7099 72.715 50.975C73.7912 52.6516 74.56 54.5066 74.9853 56.4529C75.0527 56.7606 75.2232 57.0361 75.4686 57.2336C75.714 57.4311 76.0196 57.5388 76.3346 57.5389H79.6568C79.9402 57.5857 80.1951 57.7388 80.3695 57.967C80.5439 58.1952 80.6247 58.4814 80.5954 58.7671V61.3733C80.6248 61.6591 80.544 61.9454 80.3696 62.1738C80.1952 62.4022 79.9403 62.5555 79.6568 62.6025H76.3346C76.0196 62.6025 75.7141 62.7102 75.4687 62.9076C75.2233 63.1051 75.0528 63.3805 74.9853 63.6881C74.5592 65.6355 73.79 67.4915 72.7136 69.1694C72.5443 69.4346 72.4706 69.7497 72.5047 70.0625C72.5388 70.3753 72.6786 70.667 72.9011 70.8896L75.251 73.2401C75.418 73.4738 75.4899 73.7622 75.4522 74.0469C75.4145 74.3316 75.2701 74.5913 75.048 74.7735L73.2065 76.615C73.0248 76.8377 72.7653 76.9832 72.4804 77.022C72.1955 77.0608 71.9066 76.99 71.6718 76.824L69.3199 74.4694C69.0973 74.2463 68.8051 74.106 68.4918 74.0721C68.1785 74.0381 67.863 74.1124 67.5978 74.2826C65.9211 75.3596 64.0659 76.1291 62.1191 76.555C61.8115 76.6224 61.5361 76.793 61.3387 77.0384C61.1412 77.2838 61.0336 77.5893 61.0335 77.9042V81.2292C61.0335 81.7369 60.4705 82.1657 59.8036 82.1657H57.1988C56.5312 82.1657 55.9675 81.7369 55.9675 81.2292V77.9042C55.9675 77.5893 55.8598 77.2838 55.6624 77.0384C55.4649 76.793 55.1896 76.6224 54.8819 76.555C52.9352 76.1296 51.0802 75.36 49.404 74.2826C49.1385 74.1124 48.8227 74.0381 48.5092 74.0722C48.1956 74.1063 47.9032 74.2467 47.6805 74.47L45.3353 76.8206C45.1009 76.9878 44.8118 77.0598 44.5264 77.022C44.241 76.9842 43.9806 76.8395 43.7979 76.617L41.9544 74.7728C41.7319 74.5916 41.5867 74.3325 41.5482 74.0481C41.5098 73.7637 41.581 73.4753 41.7474 73.2415L44.1007 70.8902C44.3233 70.6677 44.4632 70.3758 44.4973 70.0628C44.5314 69.7499 44.4576 69.4347 44.2881 69.1694C43.2118 67.492 42.4426 65.6364 42.0164 63.6895C41.9494 63.3815 41.7789 63.1058 41.5335 62.908C41.2881 62.7103 40.9824 62.6025 40.6672 62.6025H37.3422C37.059 62.5552 36.8044 62.4017 36.6303 62.1734C36.4562 61.945 36.3756 61.6589 36.405 61.3733V58.7671C36.3757 58.4816 36.4563 58.1956 36.6304 57.9674C36.8045 57.7392 37.0591 57.586 37.3422 57.5389H40.6672C40.9823 57.5389 41.2879 57.4311 41.5334 57.2335C41.7788 57.0358 41.9493 56.7601 42.0164 56.4523C42.4413 54.5058 43.2104 52.6508 44.2874 50.9746C44.4572 50.7094 44.5312 50.3941 44.4972 50.081C44.4632 49.7679 44.3233 49.4759 44.1006 49.2532L41.7494 46.9026C41.5819 46.6689 41.5099 46.38 41.5483 46.095C41.5866 45.81 41.7324 45.5504 41.9557 45.3693Z"/>
</mask>
<path d="M39.7946 48.854L41.3846 50.4436C40.6132 51.8104 40.0098 53.2654 39.5876 54.777H37.3422C36.3234 54.8182 35.3624 55.261 34.6692 56.0087C33.976 56.7564 33.6071 57.7482 33.643 58.7671V61.3733C33.6069 62.3924 33.9758 63.3843 34.669 64.1322C35.3622 64.8801 36.3233 65.3231 37.3422 65.3644H39.5876C40.0106 66.8762 40.6141 68.3314 41.3853 69.6988L39.7933 71.2894C39.103 72.0395 38.7375 73.0321 38.7766 74.0507C38.8156 75.0693 39.256 76.0311 40.0016 76.7262L41.8465 78.5717C42.5438 79.3153 43.5062 79.7537 44.5249 79.7917C45.5435 79.8297 46.536 79.4642 47.2867 78.7747L48.8726 77.1854C50.2394 77.9567 51.6943 78.5603 53.2056 78.9831V81.2291C53.2474 82.2482 53.6909 83.2092 54.4391 83.9023C55.1874 84.5953 56.1796 84.964 57.1988 84.9277H59.8036C60.8227 84.9638 61.8146 84.5951 62.5626 83.902C63.3106 83.209 63.7538 82.248 63.7954 81.2292V78.9831C65.3072 78.5605 66.7623 77.9566 68.1291 77.1848L69.7198 78.7774C70.4706 79.4666 71.4632 79.8313 72.4816 79.7924C73.5 79.7536 74.4618 79.3141 75.1579 78.5698L77.0028 76.7249C77.7467 76.0285 78.1853 75.0663 78.2231 74.048C78.2609 73.0297 77.8947 72.0377 77.2044 71.2881L75.6165 69.6995C76.3872 68.3317 76.9905 66.8763 77.4134 65.3644H79.6568C80.6759 65.3233 81.6372 64.8804 82.3307 64.1325C83.0241 63.3846 83.3932 62.3925 83.3573 61.3733V58.7671C83.3931 57.748 83.0239 56.7561 82.3305 56.0084C81.637 55.2607 80.6758 54.818 79.6568 54.777H77.4135C76.9915 53.2651 76.3881 51.8099 75.6165 50.443L77.2058 48.8526C77.8958 48.1031 78.2616 47.1112 78.2233 46.0931C78.185 45.0751 77.7458 44.1134 77.0015 43.4178L75.1565 41.5706C74.4609 40.8251 73.4985 40.3853 72.4795 40.347C71.4606 40.3088 70.4679 40.6754 69.7184 41.3666L68.129 42.9549C66.7624 42.1831 65.3072 41.5797 63.7954 41.1579V38.9129C63.754 37.8939 63.3109 36.9327 62.5629 36.2394C61.8149 35.5462 60.8228 35.1773 59.8036 35.2134H57.1988C56.1794 35.1771 55.1871 35.5459 54.4388 36.2392C53.6906 36.9324 53.2472 37.8937 53.2056 38.9129V41.1579C51.6938 41.5796 50.2387 42.1829 48.872 42.9546L47.2847 41.3663C46.5341 40.6756 45.541 40.3097 44.5217 40.3484C43.5025 40.387 42.5399 40.8271 41.8438 41.5727L40.0037 43.4152C39.2569 44.1099 38.8157 45.0722 38.7765 46.0914C38.7373 47.1107 39.1034 48.1039 39.7946 48.854ZM41.9557 45.3693L43.7958 43.5264C43.9779 43.3035 44.2378 43.1581 44.523 43.1196C44.8082 43.0812 45.0974 43.1526 45.3319 43.3194L47.6811 45.67C47.9037 45.8928 48.1958 46.0328 48.5089 46.0668C48.822 46.1008 49.1373 46.0269 49.4026 45.8571C51.0789 44.7803 52.934 44.0115 54.8806 43.5868C55.1885 43.5197 55.4643 43.3493 55.662 43.1038C55.8597 42.8584 55.9675 42.5527 55.9675 42.2375V38.9129C55.9675 38.4048 56.5313 37.9753 57.1988 37.9753H59.8036C60.0894 37.9458 60.3757 38.0264 60.6042 38.2006C60.8327 38.3748 60.9862 38.6295 61.0335 38.9129V42.2375C61.0335 42.5527 61.1413 42.8584 61.339 43.1038C61.5367 43.3493 61.8125 43.5197 62.1205 43.5867C64.067 44.0116 65.922 44.7804 67.5984 45.8571C67.8636 46.0267 68.1787 46.1007 68.4916 46.0668C68.8046 46.0329 69.0965 45.8931 69.3192 45.6706L71.6718 43.3194C71.9055 43.1523 72.194 43.0805 72.4787 43.1185C72.7634 43.1565 73.0229 43.3015 73.2045 43.524L75.0474 45.3696C75.2697 45.5511 75.4145 45.8106 75.4523 46.0951C75.4902 46.3796 75.4182 46.6679 75.251 46.9012L72.9004 49.2538C72.6779 49.4766 72.5382 49.7687 72.5045 50.0817C72.4708 50.3948 72.545 50.7099 72.715 50.975C73.7912 52.6516 74.56 54.5066 74.9853 56.4529C75.0527 56.7606 75.2232 57.0361 75.4686 57.2336C75.714 57.4311 76.0196 57.5388 76.3346 57.5389H79.6568C79.9402 57.5857 80.1951 57.7388 80.3695 57.967C80.5439 58.1952 80.6247 58.4814 80.5954 58.7671V61.3733C80.6248 61.6591 80.544 61.9454 80.3696 62.1738C80.1952 62.4022 79.9403 62.5555 79.6568 62.6025H76.3346C76.0196 62.6025 75.7141 62.7102 75.4687 62.9076C75.2233 63.1051 75.0528 63.3805 74.9853 63.6881C74.5592 65.6355 73.79 67.4915 72.7136 69.1694C72.5443 69.4346 72.4706 69.7497 72.5047 70.0625C72.5388 70.3753 72.6786 70.667 72.9011 70.8896L75.251 73.2401C75.418 73.4738 75.4899 73.7622 75.4522 74.0469C75.4145 74.3316 75.2701 74.5913 75.048 74.7735L73.2065 76.615C73.0248 76.8377 72.7653 76.9832 72.4804 77.022C72.1955 77.0608 71.9066 76.99 71.6718 76.824L69.3199 74.4694C69.0973 74.2463 68.8051 74.106 68.4918 74.0721C68.1785 74.0381 67.863 74.1124 67.5978 74.2826C65.9211 75.3596 64.0659 76.1291 62.1191 76.555C61.8115 76.6224 61.5361 76.793 61.3387 77.0384C61.1412 77.2838 61.0336 77.5893 61.0335 77.9042V81.2292C61.0335 81.7369 60.4705 82.1657 59.8036 82.1657H57.1988C56.5312 82.1657 55.9675 81.7369 55.9675 81.2292V77.9042C55.9675 77.5893 55.8598 77.2838 55.6624 77.0384C55.4649 76.793 55.1896 76.6224 54.8819 76.555C52.9352 76.1296 51.0802 75.36 49.404 74.2826C49.1385 74.1124 48.8227 74.0381 48.5092 74.0722C48.1956 74.1063 47.9032 74.2467 47.6805 74.47L45.3353 76.8206C45.1009 76.9878 44.8118 77.0598 44.5264 77.022C44.241 76.9842 43.9806 76.8395 43.7979 76.617L41.9544 74.7728C41.7319 74.5916 41.5867 74.3325 41.5482 74.0481C41.5098 73.7637 41.581 73.4753 41.7474 73.2415L44.1007 70.8902C44.3233 70.6677 44.4632 70.3758 44.4973 70.0628C44.5314 69.7499 44.4576 69.4347 44.2881 69.1694C43.2118 67.492 42.4426 65.6364 42.0164 63.6895C41.9494 63.3815 41.7789 63.1058 41.5335 62.908C41.2881 62.7103 40.9824 62.6025 40.6672 62.6025H37.3422C37.059 62.5552 36.8044 62.4017 36.6303 62.1734C36.4562 61.945 36.3756 61.6589 36.405 61.3733V58.7671C36.3757 58.4816 36.4563 58.1956 36.6304 57.9674C36.8045 57.7392 37.0591 57.586 37.3422 57.5389H40.6672C40.9823 57.5389 41.2879 57.4311 41.5334 57.2335C41.7788 57.0358 41.9493 56.7601 42.0164 56.4523C42.4413 54.5058 43.2104 52.6508 44.2874 50.9746C44.4572 50.7094 44.5312 50.3941 44.4972 50.081C44.4632 49.7679 44.3233 49.4759 44.1006 49.2532L41.7494 46.9026C41.5819 46.6689 41.5099 46.38 41.5483 46.095C41.5866 45.81 41.7324 45.5504 41.9557 45.3693Z" fill="#333333" stroke="#F4ECFE" mask="url(#path-7-inside-1_609_62231)"/>
<path d="M58.4989 70.1791C60.4979 70.1793 62.4521 69.5867 64.1143 68.4762C65.7765 67.3657 67.0721 65.7872 67.8373 63.9404C68.6024 62.0936 68.8027 60.0614 68.4128 58.1007C68.0229 56.1401 67.0603 54.3391 65.6469 52.9255C64.2334 51.5119 62.4325 50.5492 60.4718 50.1591C58.5112 49.7691 56.479 49.9692 54.6321 50.7341C52.7852 51.4991 51.2066 52.7945 50.096 54.4567C48.9854 56.1188 48.3926 58.0729 48.3926 60.0719L58.4989 70.1791ZM58.4989 70.1791C55.8186 70.1784 53.2483 69.1133 51.3531 67.218C49.4579 65.3227 48.393 62.7523 48.3926 60.072L49.8881 54.3178C51.0262 52.6145 52.6438 51.287 54.5364 50.5032C56.429 49.7193 58.5115 49.5142 60.5206 49.9139C62.5297 50.3136 64.3752 51.3001 65.8236 52.7487C67.2721 54.1973 68.2584 56.0428 68.658 58.052C69.0575 60.0611 68.8523 62.1436 68.0682 64.0361C67.2842 65.9286 65.9565 67.5461 64.2532 68.6841C62.5499 69.822 60.5473 70.4293 58.4988 70.4291L58.4989 70.1791ZM58.4988 52.2268L58.4985 52.2268C56.4188 52.2295 54.4251 53.0569 52.9546 54.5275C51.4841 55.9982 50.657 57.992 50.6545 60.0717V60.072C50.6545 61.6237 51.1146 63.1405 51.9767 64.4307C52.8388 65.7208 54.0641 66.7264 55.4977 67.3201C56.9313 67.9139 58.5087 68.0692 60.0306 67.7664C61.5524 67.4636 62.9503 66.7164 64.0475 65.6191C65.1446 64.5218 65.8917 63.1238 66.1943 61.602C66.4969 60.0801 66.3414 58.5026 65.7475 57.0691C65.1536 55.6356 64.1479 54.4104 62.8576 53.5485C61.5674 52.6865 60.0505 52.2266 58.4988 52.2268Z" fill="#9642F4" stroke="#F4ECFE" stroke-width="0.5"/>
<path d="M57.3694 27.7217V27.5781L57.2454 27.5057L53.7876 25.4887C53.7876 25.4887 53.7876 25.4887 53.7876 25.4887C53.6169 25.3891 53.4753 25.2465 53.3768 25.0751C53.2784 24.9037 53.2266 24.7095 53.2266 24.5118V19.6785C53.2266 19.6785 53.2266 19.6785 53.2266 19.6785C53.2266 19.4808 53.2784 19.2866 53.3768 19.1152C53.4753 18.9438 53.6169 18.8012 53.7876 18.7016C53.7876 18.7016 53.7876 18.7016 53.7876 18.7016L57.9305 16.2849C58.1034 16.184 58.3001 16.1309 58.5004 16.1309C58.7006 16.1309 58.8973 16.184 59.0703 16.2849L63.2131 18.7016C63.2131 18.7016 63.2131 18.7016 63.2131 18.7016C63.3839 18.8012 63.5255 18.9438 63.6239 19.1152L63.8407 18.9907L63.6239 19.1152C63.7224 19.2866 63.7742 19.4808 63.7742 19.6785V24.5118C63.7742 24.7095 63.7224 24.9037 63.6239 25.0751C63.5255 25.2465 63.3838 25.3891 63.2131 25.4887L59.7554 27.5057L59.6313 27.5781V27.7217V32.2023H57.3694V27.7217ZM55.6125 20.2558L55.4885 20.3282V20.4718V23.7185V23.8621L55.6125 23.9345L58.3744 25.5457L58.5004 25.6192L58.6263 25.5457L61.3883 23.9345L61.5123 23.8621V23.7185V20.4718V20.3282L61.3883 20.2558L58.6263 18.6446L58.5004 18.5711L58.3744 18.6446L55.6125 20.2558ZM86.3694 61.2023V58.9404H91.6432H91.8932V58.6904V57.6547C91.8932 57.457 91.945 57.2628 92.0435 57.0914C92.1419 56.92 92.2836 56.7774 92.4543 56.6778L96.5971 54.2611C96.7701 54.1602 96.9668 54.1071 97.167 54.1071C97.3673 54.1071 97.564 54.1602 97.7369 54.2611L101.88 56.6778C102.051 56.7774 102.192 56.92 102.291 57.0914C102.389 57.2628 102.441 57.457 102.441 57.6547V62.488C102.441 62.6856 102.389 62.8798 102.291 63.0512C102.192 63.2226 102.05 63.3652 101.88 63.4649C101.88 63.4649 101.88 63.4649 101.88 63.4649L97.7369 65.8815C97.564 65.9825 97.3673 66.0356 97.167 66.0356C96.9668 66.0356 96.7701 65.9825 96.5971 65.8815L92.4543 63.4649C92.4543 63.4649 92.4543 63.4649 92.4543 63.4649C92.2836 63.3652 92.142 63.2226 92.0435 63.0512C91.9451 62.8798 91.8933 62.6856 91.8932 62.488V61.4523V61.2023H91.6432H86.3694ZM94.2792 58.232L94.1551 58.3044V58.448V61.695V61.8386L94.2792 61.911L97.0411 63.5219L97.167 63.5953L97.293 63.5219L100.055 61.911L100.179 61.8386V61.695V58.448V58.3044L100.055 58.232L97.293 56.6208L97.167 56.5473L97.0411 56.6208L94.2792 58.232Z" fill="#333333" stroke="#F4ECFE" stroke-width="0.5"/>
<path d="M79.9162 88.9448L79.9162 88.9448L83.3335 92.3628C83.3335 92.3628 83.3335 92.3628 83.3335 92.3628C83.4733 92.5025 83.6473 92.6032 83.838 92.6548L83.7727 92.8961L83.838 92.6548C84.0288 92.7065 84.2298 92.7073 84.421 92.6572L89.0592 91.4368C89.2529 91.3857 89.4297 91.2842 89.5714 91.1425C89.713 91.0008 89.8146 90.8241 89.8656 90.6304L91.086 85.9921C91.1362 85.8009 91.1354 85.5999 91.0838 85.4092C91.0321 85.2184 90.9314 85.0444 90.7917 84.9047L87.3737 81.4874L87.3736 81.4873C87.2339 81.3475 87.06 81.2468 86.8692 81.1951C86.6784 81.1435 86.4774 81.1427 86.2863 81.193L82.4151 82.2117L82.2763 82.2482L82.1747 82.1467L79.0082 78.9801L77.4093 80.5796L80.5755 83.7459L80.6771 83.8474L80.6405 83.9863L79.6218 87.8574L79.9162 88.9448ZM79.9162 88.9448C79.7764 88.805 79.6757 88.6311 79.6241 88.4403C79.5724 88.2496 79.5716 88.0486 79.6218 87.8575L79.9162 88.9448ZM83.0034 84.3965L82.8624 84.4336L82.8253 84.5746L82.0114 87.6662L81.9749 87.8051L82.0764 87.9066L84.3724 90.2026L84.4739 90.3041L84.6128 90.2676L87.7044 89.4537L87.8454 89.4166L87.8826 89.2756L88.6964 86.184L88.733 86.0451L88.6315 85.9435L86.3355 83.6476L86.2339 83.546L86.0951 83.5826L83.0034 84.3965ZM29.6275 38.6564L29.6274 38.6563L26.2094 35.2387L26.2094 35.2387C26.0696 35.0989 25.9689 34.925 25.9172 34.7342C25.8656 34.5435 25.8648 34.3425 25.915 34.1514C25.915 34.1514 25.915 34.1514 25.915 34.1514C25.915 34.1513 25.915 34.1513 25.915 34.1513L27.1355 29.513C27.1355 29.513 27.1355 29.513 27.1355 29.513C27.1865 29.3193 27.2881 29.1426 27.4297 29.001C27.5714 28.8594 27.7481 28.758 27.9418 28.707C27.9418 28.707 27.9418 28.707 27.9418 28.707L32.5802 27.4865L32.5803 27.4865C32.7714 27.4362 32.9724 27.4368 33.1631 27.4884L33.2284 27.2471L33.1631 27.4884C33.3539 27.54 33.5278 27.6407 33.6675 27.7805L33.6675 27.7806L37.0848 31.1982L37.0849 31.1982C37.2246 31.338 37.3253 31.5119 37.377 31.7027C37.4286 31.8935 37.4294 32.0945 37.3792 32.2857L36.3605 36.1574L36.324 36.2962L36.4255 36.3978L39.593 39.5653L37.995 41.1657L34.826 37.9967L34.7245 37.8952L34.5856 37.9317L30.7147 38.9504L30.7146 38.9504C30.5235 39.0008 30.3226 39.0001 30.1318 38.9485C29.9411 38.8969 29.7672 38.7962 29.6275 38.6564ZM29.2967 30.6893L29.1556 30.7264L29.1185 30.8675L28.3046 33.9598L28.2681 34.0986L28.3696 34.2002L30.6656 36.4961L30.7671 36.5977L30.906 36.5611L33.9976 35.7476L34.1387 35.7105L34.1758 35.5695L34.9896 32.4772L35.0262 32.3383L34.9247 32.2368L32.6294 29.9408L32.5279 29.8392L32.389 29.8758L29.2967 30.6893Z" fill="#9642F4" stroke="#F4ECFE" stroke-width="0.5"/>
<path d="M104.569 101.751H104.586L104.602 101.749C104.763 101.728 104.927 101.741 105.082 101.789C105.238 101.836 105.382 101.916 105.504 102.023C105.626 102.13 105.724 102.262 105.791 102.41C105.858 102.559 105.893 102.719 105.893 102.882C105.893 103.044 105.858 103.205 105.791 103.353C105.724 103.501 105.626 103.633 105.504 103.741C105.382 103.848 105.238 103.928 105.082 103.975C104.927 104.022 104.763 104.036 104.602 104.015L104.586 104.013H104.569H12.4305H12.4143L12.3982 104.015C12.237 104.036 12.0731 104.022 11.9176 103.975C11.7621 103.928 11.6184 103.848 11.4963 103.741C11.3741 103.633 11.2762 103.501 11.2092 103.353C11.1421 103.205 11.1074 103.044 11.1074 102.882C11.1074 102.719 11.1421 102.559 11.2092 102.41C11.2762 102.262 11.3741 102.13 11.4963 102.023C11.6184 101.916 11.7621 101.836 11.9176 101.789C12.0731 101.741 12.237 101.728 12.3982 101.749L12.4143 101.751H12.4305H53.4586H54.1374L53.6208 101.311C53.4981 101.206 53.3993 101.076 53.3312 100.93C53.2633 100.784 53.2274 100.625 53.2262 100.464V95.6319C53.2262 95.4342 53.2781 95.24 53.3765 95.0686C53.4749 94.8972 53.6165 94.7546 53.7872 94.6549C53.7873 94.6549 53.7873 94.6549 53.7873 94.6549L57.245 92.6379L57.369 92.5656V92.422V87.9413H59.6309V92.422V92.5656L59.755 92.6379L63.2127 94.6549C63.2127 94.6549 63.2127 94.6549 63.2128 94.6549C63.3834 94.7546 63.5251 94.8972 63.6235 95.0686C63.7219 95.24 63.7738 95.4342 63.7738 95.6318V100.464C63.7725 100.625 63.7367 100.784 63.6688 100.93C63.6007 101.076 63.5019 101.206 63.3792 101.311L62.8627 101.751H63.5414H104.569ZM55.6121 96.2088L55.4881 96.2812V96.4248V99.6722V99.8158L55.6121 99.8881L58.374 101.499L58.5 101.572L58.6259 101.499L61.3879 99.8881L61.5119 99.8158V99.6722V96.4248V96.2812L61.3879 96.2088L58.6259 94.5979L58.5 94.5245L58.374 94.5979L55.6121 96.2088Z" fill="#333333" stroke="#F4ECFE" stroke-width="0.5"/>
<path d="M11.8524 36.4223L12.8792 35.0724L12.2308 34.7051L11.5721 36.2172H11.55L10.8809 34.7154L10.2208 35.0938L11.2365 36.4119V36.4333L9.64844 36.2283V36.9629L11.2476 36.7579V36.7793L10.2208 38.0967L10.8367 38.4861L11.5397 36.9629H11.5604L12.2087 38.4751L12.8895 38.0863L11.8524 36.7896V36.7682L13.4833 36.9629V36.2283L11.8524 36.4444V36.4223Z" fill="#9642F4"/>
<path d="M15.2307 3.5578L14.6396 4.31664L14.9938 4.54104L15.3985 3.66345H15.4109L15.7844 4.53483L16.1766 4.31042L15.5794 3.56402V3.55159L16.5184 3.66345V3.24088L15.5794 3.36516V3.35273L16.1704 2.57526L15.7969 2.36328L15.4171 3.23397H15.4047L15.0194 2.3695L14.6396 2.587L15.2245 3.34652V3.35895L14.3096 3.24088V3.66345L15.2307 3.54538V3.5578Z" fill="#9642F4"/>
<path d="M115.619 10.5757V9.85483L114.019 10.0668V10.0461L115.027 8.72107L114.391 8.36133L113.744 9.84447H113.722L113.066 8.37169L112.419 8.74247L113.416 10.0357V10.0564L111.857 9.85483V10.5757L113.426 10.3748V10.3955L112.419 11.688L113.023 12.0699L113.713 10.5757H113.733L114.369 12.0595L115.037 11.6777L114.019 10.4058V10.3851L115.619 10.5757Z" fill="#9642F4"/>
<path d="M81.112 13.5238L81.9807 12.381L81.4317 12.0703L80.8745 13.3498H80.8559L80.2897 12.0793L79.7311 12.3997L80.5907 13.5148V13.5327L79.2471 13.3594V13.9809L80.5997 13.8069V13.8255L79.7311 14.9406L80.2524 15.27L80.8469 13.9809H80.8649L81.4138 15.2603L81.9896 14.9316L81.112 13.8345V13.8158L82.4916 13.9809V13.3594L81.112 13.5417V13.5238Z" fill="#9642F4"/>
<path d="M58.2242 2.36249L59.0274 1.29145L58.5202 1L58.0049 2.19978H57.9876L57.4642 1.00822L56.9478 1.30844L57.7423 2.35427V2.37126L56.5 2.20855V2.79145L57.751 2.62874V2.64573L56.9478 3.69102L57.4296 4L57.9795 2.79145H57.9957L58.5029 3.99124L59.0355 3.6828L58.2242 2.65394V2.63696L59.5 2.79145V2.20855L58.2242 2.38002V2.36249Z" fill="white"/>
<path d="M106.224 37.3625L107.027 36.2915L106.52 36L106.005 37.1998H105.988L105.464 36.0082L104.948 36.3084L105.742 37.3543V37.3713L104.5 37.2085V37.7915L105.751 37.6287V37.6457L104.948 38.691L105.43 39L105.979 37.7915H105.996L106.503 38.9912L107.035 38.6828L106.224 37.6539V37.637L107.5 37.7915V37.2085L106.224 37.38V37.3625Z" fill="white"/>
</g>
<defs>
<clipPath id="clip0_609_62231">
<rect width="116" height="116" fill="white" transform="translate(0.5)"/>
</clipPath>
</defs>
</svg>
