<svg width="112" height="112" viewBox="0 0 112 112" fill="none" xmlns="http://www.w3.org/2000/svg">
<path d="M53.5434 105.667V105.417H53.2934H42.6667C42.3794 105.417 42.1038 105.303 41.9007 105.099C41.6975 104.896 41.5834 104.621 41.5834 104.333C41.5834 104.046 41.6975 103.77 41.9007 103.567C42.1038 103.364 42.3794 103.25 42.6667 103.25H69.3334C69.6207 103.25 69.8962 103.364 70.0994 103.567C70.3026 103.77 70.4167 104.046 70.4167 104.333C70.4167 104.621 70.3026 104.896 70.0994 105.099C69.8962 105.303 69.6207 105.417 69.3334 105.417H58.7067H58.4567V105.667V107V107.25H58.7067H64.6667C64.954 107.25 65.2296 107.364 65.4327 107.567C65.6359 107.77 65.75 108.046 65.75 108.333C65.75 108.621 65.6359 108.896 65.4327 109.099C65.2296 109.303 64.954 109.417 64.6667 109.417H48C47.7127 109.417 47.4372 109.303 47.234 109.099C47.0308 108.896 46.9167 108.621 46.9167 108.333C46.9167 108.046 47.0308 107.77 47.234 107.567C47.4372 107.364 47.7127 107.25 48 107.25H53.2934H53.5434V107V105.667ZM72.5384 103.596C72.7217 103.397 72.9723 103.274 73.2413 103.25H78.7588C79.0277 103.274 79.2783 103.397 79.4616 103.596C79.6471 103.797 79.75 104.06 79.75 104.333C79.75 104.607 79.6471 104.87 79.4616 105.071C79.2783 105.27 79.0277 105.393 78.7588 105.417H73.2413C72.9723 105.393 72.7217 105.27 72.5384 105.071C72.353 104.87 72.25 104.607 72.25 104.333C72.25 104.06 72.353 103.797 72.5384 103.596ZM32.5384 103.596C32.7217 103.397 32.9723 103.274 33.2413 103.25H38.7587C39.0277 103.274 39.2783 103.397 39.4616 103.596C39.6471 103.797 39.75 104.06 39.75 104.333C39.75 104.607 39.6471 104.87 39.4616 105.071C39.2783 105.27 39.0277 105.393 38.7587 105.417H33.2413C32.9723 105.393 32.7217 105.27 32.5384 105.071C32.353 104.87 32.25 104.607 32.25 104.333C32.25 104.06 32.353 103.797 32.5384 103.596Z" fill="#9642F4" stroke="#F4ECFE" stroke-width="0.5"/>
<path d="M53.3333 74.9382C54.0697 74.9382 54.6667 74.3412 54.6667 73.6048C54.6667 72.8684 54.0697 72.2715 53.3333 72.2715C52.597 72.2715 52 72.8684 52 73.6048C52 74.3412 52.597 74.9382 53.3333 74.9382Z" fill="#9642F4"/>
<path d="M53.3333 80.2721C54.0697 80.2721 54.6667 79.6752 54.6667 78.9388C54.6667 78.2024 54.0697 77.6055 53.3333 77.6055C52.597 77.6055 52 78.2024 52 78.9388C52 79.6752 52.597 80.2721 53.3333 80.2721Z" fill="#333333"/>
<path d="M53.3333 85.6061C54.0697 85.6061 54.6667 85.0092 54.6667 84.2728C54.6667 83.5364 54.0697 82.9395 53.3333 82.9395C52.597 82.9395 52 83.5364 52 84.2728C52 85.0092 52.597 85.6061 53.3333 85.6061Z" fill="#9642F4"/>
<path d="M27.9003 78.1734C28.1035 77.9703 28.379 77.8561 28.6663 77.8561H36.6663C36.9537 77.8561 37.2292 77.9703 37.4324 78.1734C37.6355 78.3766 37.7497 78.6521 37.7497 78.9395C37.7497 79.2268 37.6355 79.5023 37.4324 79.7055C37.2292 79.9086 36.9537 80.0228 36.6663 80.0228H28.6663C28.379 80.0228 28.1035 79.9086 27.9003 79.7055C27.6971 79.5023 27.583 79.2268 27.583 78.9395C27.583 78.6521 27.6971 78.3766 27.9003 78.1734ZM74.4163 38.938C74.4163 52.0837 64.9544 62.6895 53.3317 62.6895C41.7103 62.6895 32.2497 52.0838 32.2497 38.938C32.2497 25.7936 41.7102 15.1894 53.3317 15.1895C64.9544 15.1895 74.4163 25.7936 74.4163 38.938ZM72.2497 38.9379C72.2497 27.0698 63.7936 17.3561 53.3317 17.3561C42.8712 17.3561 34.4163 27.0699 34.4163 38.938C34.4163 50.8076 42.8712 60.5228 53.3317 60.5228C63.7936 60.5228 72.2497 50.8077 72.2497 38.9379Z" fill="#9642F4" stroke="#F4ECFE" stroke-width="0.5"/>
<path d="M68.4795 59.6058H70.7859C73.222 59.5822 75.6502 59.8861 78.0053 60.5093L78.6552 59.237C78.1792 58.8054 77.8138 58.2661 77.5894 57.6641C75.4317 57.1876 73.2289 56.946 71.0193 56.9434C70.2379 57.8909 69.3891 58.7807 68.4795 59.6058Z" fill="#333333"/>
<path d="M82.6663 80.2715C82.3127 80.2715 81.9736 80.412 81.7236 80.662C81.4735 80.9121 81.333 81.2512 81.333 81.6048C81.333 81.9584 81.4735 82.2976 81.7235 82.5476C81.9736 82.7977 82.3127 82.9381 82.6663 82.9381C83.02 82.9381 83.3591 82.7977 83.6091 82.5476C83.8592 82.2976 83.9997 81.9584 83.9997 81.6048C83.9997 81.2512 83.8592 80.9121 83.6091 80.662C83.3591 80.412 83.02 80.2715 82.6663 80.2715ZM82.6663 84.2715C82.3127 84.2715 81.9736 84.412 81.7236 84.662C81.4735 84.9121 81.333 85.2512 81.333 85.6048V88.2715C81.333 88.6251 81.4735 88.9642 81.7235 89.2143C81.9736 89.4643 82.3127 89.6048 82.6663 89.6048C83.02 89.6048 83.3591 89.4643 83.6091 89.2143C83.8592 88.9642 83.9997 88.6251 83.9997 88.2715V85.6048C83.9997 85.2512 83.8592 84.9121 83.6091 84.662C83.3591 84.412 83.02 84.2715 82.6663 84.2715Z" fill="#9642F4"/>
<path d="M1.33333 100.272C2.06971 100.272 2.66667 99.6752 2.66667 98.9388C2.66667 98.2024 2.06971 97.6055 1.33333 97.6055C0.596954 97.6055 0 98.2024 0 98.9388C0 99.6752 0.596954 100.272 1.33333 100.272Z" fill="#333333"/>
<path d="M7.33333 97.6055H5.33333C4.97971 97.6055 4.64057 97.7459 4.39052 97.996C4.14048 98.246 4 98.5852 4 98.9388C4 99.2924 4.14048 99.6316 4.39052 99.8816C4.64057 100.132 4.97971 100.272 5.33333 100.272H7.33333C7.68696 100.272 8.02609 100.132 8.27614 99.8816C8.52619 99.6316 8.66667 99.2924 8.66667 98.9388C8.66667 98.5852 8.52619 98.246 8.27614 97.996C8.02609 97.7459 7.68696 97.6055 7.33333 97.6055ZM106.667 97.6055H104.667C104.313 97.6055 103.974 97.7459 103.724 97.996C103.474 98.246 103.333 98.5852 103.333 98.9388C103.333 99.2924 103.474 99.6316 103.724 99.8816C103.974 100.132 104.313 100.272 104.667 100.272H106.667C107.02 100.272 107.359 100.132 107.609 99.8816C107.86 99.6316 108 99.2924 108 98.9388C108 98.5852 107.86 98.246 107.609 97.996C107.359 97.7459 107.02 97.6055 106.667 97.6055Z" fill="#333333"/>
<path d="M110.666 100.272C111.403 100.272 112 99.6752 112 98.9388C112 98.2024 111.403 97.6055 110.666 97.6055C109.93 97.6055 109.333 98.2024 109.333 98.9388C109.333 99.6752 109.93 100.272 110.666 100.272Z" fill="#333333"/>
<mask id="path-11-inside-1_609_62262" fill="white">
<path d="M100.481 97.6055H98.4333C98.5868 97.1776 98.6657 96.7267 98.6667 96.2721V76.099C98.666 75.5719 98.5411 75.0524 98.3021 74.5827L93.2347 59.6615V57.6055H93.3333C93.687 57.6054 94.0261 57.465 94.2761 57.2149C94.5262 56.9649 94.6667 56.6257 94.6667 56.2721V50.9388C94.6667 50.5852 94.5262 50.2461 94.2761 49.996C94.0261 49.746 93.687 49.6055 93.3333 49.6055H81.3333C80.9797 49.6055 80.6406 49.746 80.3905 49.996C80.1405 50.2461 80 50.5852 80 50.9388V56.2721C80 56.6257 80.1405 56.9649 80.3905 57.2149C80.6406 57.465 80.9797 57.6054 81.3333 57.6055H81.432V59.6615L76.3646 74.5833C76.1255 75.0528 76.0006 75.5721 76 76.099V96.2721C76.0009 96.7267 76.0799 97.1777 76.2333 97.6055H54.6667V90.2721C54.6667 89.9185 54.5262 89.5794 54.2761 89.3293C54.0261 89.0793 53.687 88.9388 53.3333 88.9388C52.9797 88.9388 52.6406 89.0793 52.3905 89.3293C52.1405 89.5794 52 89.9185 52 90.2721V97.6055H16V78.6413C16 66.5436 23.2464 59.6055 35.8809 59.6055H38.1866C37.277 58.7803 36.4283 57.8905 35.6471 56.943C21.6709 57.0332 13.3333 65.1281 13.3333 78.6413V97.6055H11.5191C11.3294 97.5807 11.1367 97.5967 10.9536 97.6523C10.7706 97.708 10.6016 97.8021 10.4578 97.9283C10.3141 98.0545 10.1989 98.2099 10.12 98.3841C10.0411 98.5584 10.0002 98.7475 10.0002 98.9388C10.0002 99.1301 10.0411 99.3192 10.12 99.4935C10.1989 99.6677 10.3141 99.8232 10.4578 99.9493C10.6016 100.076 10.7706 100.17 10.9536 100.225C11.1367 100.281 11.3294 100.297 11.5191 100.272H100.481C100.671 100.297 100.863 100.281 101.046 100.225C101.229 100.17 101.398 100.076 101.542 99.9493C101.686 99.8232 101.801 99.6677 101.88 99.4935C101.959 99.3192 102 99.1301 102 98.9388C102 98.7475 101.959 98.5584 101.88 98.3841C101.801 98.2099 101.686 98.0545 101.542 97.9283C101.398 97.8021 101.229 97.708 101.046 97.6523C100.863 97.5967 100.671 97.5807 100.481 97.6055ZM82.6667 52.2721H92V54.9388H82.6667V52.2721ZM83.9528 60.5892C84.0486 60.4013 84.0985 60.1933 84.0986 59.9824V57.6055H90.568V59.9824C90.5681 60.1933 90.6181 60.4013 90.7139 60.5892L94.8691 73.7242C94.2797 74.0735 93.7582 74.5262 93.3294 75.0605C92.7487 75.724 92.5173 75.9388 91.9987 75.9388C91.4801 75.9388 91.2487 75.724 90.668 75.0605C90.3023 74.5105 89.8063 74.0594 89.2242 73.7473C88.642 73.4353 87.9917 73.2721 87.3312 73.2721C86.6707 73.2722 86.0204 73.4356 85.4383 73.7477C84.8562 74.0599 84.3603 74.5111 83.9948 75.0612C83.4147 75.7246 83.1836 75.9388 82.666 75.9388C82.1481 75.9388 81.917 75.7246 81.3366 75.0606C80.908 74.5264 80.3868 74.0738 79.7977 73.7245L83.9528 60.5892ZM78.6667 76.1491C78.9099 76.3485 79.132 76.5723 79.3294 76.8171C79.695 77.3671 80.1909 77.8183 80.7731 78.1303C81.3552 78.4423 82.0054 78.6056 82.6659 78.6055C83.3263 78.6054 83.9765 78.442 84.5586 78.1299C85.1406 77.8178 85.6365 77.3665 86.002 76.8164C86.582 76.153 86.8132 75.9388 87.3307 75.9388C87.8493 75.9388 88.0807 76.1537 88.6615 76.8171C89.0273 77.3671 89.5233 77.8182 90.1056 78.1302C90.6878 78.4422 91.3381 78.6055 91.9987 78.6055C92.6593 78.6055 93.3096 78.4422 93.8918 78.1302C94.474 77.8182 94.9701 77.3671 95.3359 76.8171C95.5338 76.5721 95.7563 76.3482 96 76.1487V90.9388H78.6667V76.1491ZM80 97.6055C79.6465 97.6051 79.3076 97.4645 79.0576 97.2145C78.8077 96.9645 78.6671 96.6256 78.6667 96.2721V93.6055H96V96.2721C95.9996 96.6256 95.859 96.9645 95.609 97.2145C95.3591 97.4645 95.0202 97.6051 94.6667 97.6055H80ZM84 32.0176C84.3956 32.0176 84.7822 31.9003 85.1111 31.6805C85.44 31.4608 85.6964 31.1484 85.8478 30.7829C85.9991 30.4175 86.0387 30.0154 85.9616 29.6274C85.8844 29.2394 85.6939 28.8831 85.4142 28.6034C85.1345 28.3237 84.7781 28.1332 84.3902 28.056C84.0022 27.9788 83.6001 28.0184 83.2346 28.1698C82.8692 28.3212 82.5568 28.5775 82.3371 28.9064C82.1173 29.2353 82 29.622 82 30.0176C82.0006 30.5478 82.2115 31.0562 82.5865 31.4311C82.9614 31.8061 83.4698 32.017 84 32.0176ZM84 29.0176C84.1978 29.0176 84.3911 29.0762 84.5556 29.1861C84.72 29.296 84.8482 29.4522 84.9239 29.6349C84.9996 29.8176 85.0194 30.0187 84.9808 30.2127C84.9422 30.4067 84.847 30.5848 84.7071 30.7247C84.5673 30.8645 84.3891 30.9598 84.1951 30.9984C84.0011 31.037 83.8 31.0171 83.6173 30.9415C83.4346 30.8658 83.2784 30.7376 83.1685 30.5732C83.0587 30.4087 83 30.2154 83 30.0176C83.0003 29.7524 83.1057 29.4982 83.2932 29.3108C83.4807 29.1233 83.7349 29.0178 84 29.0176ZM59.3333 8.13576C59.0696 8.13576 58.8118 8.21396 58.5926 8.36047C58.3733 8.50698 58.2024 8.71522 58.1015 8.95885C58.0006 9.20249 57.9742 9.47057 58.0256 9.72922C58.0771 9.98786 58.2041 10.2254 58.3905 10.4119C58.577 10.5984 58.8146 10.7254 59.0732 10.7768C59.3319 10.8283 59.5999 10.8019 59.8436 10.7009C60.0872 10.6 60.2955 10.4291 60.442 10.2099C60.5885 9.99059 60.6667 9.7328 60.6667 9.4691C60.6663 9.1156 60.5257 8.77669 60.2757 8.52673C60.0257 8.27677 59.6868 8.13617 59.3333 8.13576ZM59.3333 10.1358C59.2015 10.1358 59.0726 10.0967 58.963 10.0234C58.8533 9.95015 58.7679 9.84604 58.7174 9.72422C58.667 9.6024 58.6538 9.46836 58.6795 9.33904C58.7052 9.20971 58.7687 9.09093 58.8619 8.99769C58.9552 8.90446 59.074 8.84096 59.2033 8.81524C59.3326 8.78952 59.4666 8.80272 59.5885 8.85318C59.7103 8.90363 59.8144 8.98908 59.8876 9.09872C59.9609 9.20835 60 9.33724 60 9.4691C59.9998 9.64585 59.9295 9.81532 59.8045 9.9403C59.6796 10.0653 59.5101 10.1356 59.3333 10.1358ZM14.6667 39.6054C14.403 39.6054 14.1452 39.6836 13.9259 39.8301C13.7066 39.9766 13.5357 40.1849 13.4348 40.4285C13.3339 40.6721 13.3075 40.9402 13.359 41.1989C13.4104 41.4575 13.5374 41.6951 13.7239 41.8816C13.9103 42.068 14.1479 42.195 14.4065 42.2465C14.6652 42.2979 14.9333 42.2715 15.1769 42.1706C15.4205 42.0697 15.6288 41.8988 15.7753 41.6795C15.9218 41.4603 16 41.2025 16 40.9388C15.9996 40.5853 15.859 40.2464 15.609 39.9964C15.3591 39.7464 15.0202 39.6058 14.6667 39.6054ZM14.6667 41.6054C14.5348 41.6054 14.4059 41.5663 14.2963 41.4931C14.1867 41.4198 14.1012 41.3157 14.0507 41.1939C14.0003 41.0721 13.9871 40.938 14.0128 40.8087C14.0385 40.6794 14.102 40.5606 14.1953 40.4674C14.2885 40.3741 14.4073 40.3106 14.5366 40.2849C14.6659 40.2592 14.8 40.2724 14.9218 40.3228C15.0436 40.3733 15.1477 40.4587 15.221 40.5684C15.2942 40.678 15.3333 40.8069 15.3333 40.9388C15.3332 41.1155 15.2629 41.285 15.1379 41.41C15.0129 41.535 14.8434 41.6053 14.6667 41.6054ZM103.333 6.34528C103.07 6.34528 102.812 6.42348 102.593 6.56999C102.373 6.7165 102.202 6.92474 102.101 7.16837C102.001 7.41201 101.974 7.68009 102.026 7.93874C102.077 8.19738 102.204 8.43495 102.391 8.62142C102.577 8.80789 102.815 8.93488 103.073 8.98633C103.332 9.03778 103.6 9.01137 103.844 8.91045C104.087 8.80954 104.295 8.63864 104.442 8.41938C104.588 8.20011 104.667 7.94232 104.667 7.67862C104.666 7.32512 104.526 6.98621 104.276 6.73625C104.026 6.48629 103.687 6.34569 103.333 6.34528ZM103.333 8.34528C103.201 8.34528 103.073 8.30618 102.963 8.23293C102.853 8.15967 102.768 8.05556 102.717 7.93374C102.667 7.81192 102.654 7.67788 102.679 7.54856C102.705 7.41923 102.769 7.30045 102.862 7.20721C102.955 7.11398 103.074 7.05048 103.203 7.02476C103.333 6.99904 103.467 7.01224 103.588 7.0627C103.71 7.11315 103.814 7.1986 103.888 7.30824C103.961 7.41787 104 7.54676 104 7.67862C104 7.85537 103.93 8.02484 103.805 8.14983C103.68 8.27481 103.51 8.34511 103.333 8.34528ZM12.6667 3.9388C12.6667 3.67509 12.5885 3.41731 12.442 3.19804C12.2955 2.97878 12.0872 2.80788 11.8436 2.70696C11.5999 2.60605 11.3319 2.57964 11.0732 2.63109C10.8146 2.68254 10.577 2.80952 10.3905 2.99599C10.2041 3.18246 10.0771 3.42004 10.0256 3.67868C9.97417 3.93732 10.0006 4.20541 10.1015 4.44905C10.2024 4.69268 10.3733 4.90092 10.5926 5.04743C10.8118 5.19394 11.0696 5.27214 11.3333 5.27214C11.6868 5.27173 12.0257 5.13113 12.2757 4.88117C12.5257 4.6312 12.6663 4.2923 12.6667 3.9388ZM10.6667 3.9388C10.6667 3.80695 10.7058 3.67806 10.779 3.56842C10.8523 3.45879 10.9564 3.37334 11.0782 3.32288C11.2 3.27242 11.3341 3.25922 11.4634 3.28495C11.5927 3.31067 11.7115 3.37416 11.8047 3.4674C11.898 3.56063 11.9615 3.67942 11.9872 3.80874C12.0129 3.93806 11.9997 4.07211 11.9493 4.19392C11.8988 4.31574 11.8133 4.41986 11.7037 4.49312C11.5941 4.56637 11.4652 4.60547 11.3333 4.60547C11.1566 4.60529 10.9871 4.535 10.8621 4.41001C10.7371 4.28503 10.6668 4.11556 10.6667 3.9388Z"/>
</mask>
<path d="M100.481 97.6055H98.4333C98.5868 97.1776 98.6657 96.7267 98.6667 96.2721V76.099C98.666 75.5719 98.5411 75.0524 98.3021 74.5827L93.2347 59.6615V57.6055H93.3333C93.687 57.6054 94.0261 57.465 94.2761 57.2149C94.5262 56.9649 94.6667 56.6257 94.6667 56.2721V50.9388C94.6667 50.5852 94.5262 50.2461 94.2761 49.996C94.0261 49.746 93.687 49.6055 93.3333 49.6055H81.3333C80.9797 49.6055 80.6406 49.746 80.3905 49.996C80.1405 50.2461 80 50.5852 80 50.9388V56.2721C80 56.6257 80.1405 56.9649 80.3905 57.2149C80.6406 57.465 80.9797 57.6054 81.3333 57.6055H81.432V59.6615L76.3646 74.5833C76.1255 75.0528 76.0006 75.5721 76 76.099V96.2721C76.0009 96.7267 76.0799 97.1777 76.2333 97.6055H54.6667V90.2721C54.6667 89.9185 54.5262 89.5794 54.2761 89.3293C54.0261 89.0793 53.687 88.9388 53.3333 88.9388C52.9797 88.9388 52.6406 89.0793 52.3905 89.3293C52.1405 89.5794 52 89.9185 52 90.2721V97.6055H16V78.6413C16 66.5436 23.2464 59.6055 35.8809 59.6055H38.1866C37.277 58.7803 36.4283 57.8905 35.6471 56.943C21.6709 57.0332 13.3333 65.1281 13.3333 78.6413V97.6055H11.5191C11.3294 97.5807 11.1367 97.5967 10.9536 97.6523C10.7706 97.708 10.6016 97.8021 10.4578 97.9283C10.3141 98.0545 10.1989 98.2099 10.12 98.3841C10.0411 98.5584 10.0002 98.7475 10.0002 98.9388C10.0002 99.1301 10.0411 99.3192 10.12 99.4935C10.1989 99.6677 10.3141 99.8232 10.4578 99.9493C10.6016 100.076 10.7706 100.17 10.9536 100.225C11.1367 100.281 11.3294 100.297 11.5191 100.272H100.481C100.671 100.297 100.863 100.281 101.046 100.225C101.229 100.17 101.398 100.076 101.542 99.9493C101.686 99.8232 101.801 99.6677 101.88 99.4935C101.959 99.3192 102 99.1301 102 98.9388C102 98.7475 101.959 98.5584 101.88 98.3841C101.801 98.2099 101.686 98.0545 101.542 97.9283C101.398 97.8021 101.229 97.708 101.046 97.6523C100.863 97.5967 100.671 97.5807 100.481 97.6055ZM82.6667 52.2721H92V54.9388H82.6667V52.2721ZM83.9528 60.5892C84.0486 60.4013 84.0985 60.1933 84.0986 59.9824V57.6055H90.568V59.9824C90.5681 60.1933 90.6181 60.4013 90.7139 60.5892L94.8691 73.7242C94.2797 74.0735 93.7582 74.5262 93.3294 75.0605C92.7487 75.724 92.5173 75.9388 91.9987 75.9388C91.4801 75.9388 91.2487 75.724 90.668 75.0605C90.3023 74.5105 89.8063 74.0594 89.2242 73.7473C88.642 73.4353 87.9917 73.2721 87.3312 73.2721C86.6707 73.2722 86.0204 73.4356 85.4383 73.7477C84.8562 74.0599 84.3603 74.5111 83.9948 75.0612C83.4147 75.7246 83.1836 75.9388 82.666 75.9388C82.1481 75.9388 81.917 75.7246 81.3366 75.0606C80.908 74.5264 80.3868 74.0738 79.7977 73.7245L83.9528 60.5892ZM78.6667 76.1491C78.9099 76.3485 79.132 76.5723 79.3294 76.8171C79.695 77.3671 80.1909 77.8183 80.7731 78.1303C81.3552 78.4423 82.0054 78.6056 82.6659 78.6055C83.3263 78.6054 83.9765 78.442 84.5586 78.1299C85.1406 77.8178 85.6365 77.3665 86.002 76.8164C86.582 76.153 86.8132 75.9388 87.3307 75.9388C87.8493 75.9388 88.0807 76.1537 88.6615 76.8171C89.0273 77.3671 89.5233 77.8182 90.1056 78.1302C90.6878 78.4422 91.3381 78.6055 91.9987 78.6055C92.6593 78.6055 93.3096 78.4422 93.8918 78.1302C94.474 77.8182 94.9701 77.3671 95.3359 76.8171C95.5338 76.5721 95.7563 76.3482 96 76.1487V90.9388H78.6667V76.1491ZM80 97.6055C79.6465 97.6051 79.3076 97.4645 79.0576 97.2145C78.8077 96.9645 78.6671 96.6256 78.6667 96.2721V93.6055H96V96.2721C95.9996 96.6256 95.859 96.9645 95.609 97.2145C95.3591 97.4645 95.0202 97.6051 94.6667 97.6055H80ZM84 32.0176C84.3956 32.0176 84.7822 31.9003 85.1111 31.6805C85.44 31.4608 85.6964 31.1484 85.8478 30.7829C85.9991 30.4175 86.0387 30.0154 85.9616 29.6274C85.8844 29.2394 85.6939 28.8831 85.4142 28.6034C85.1345 28.3237 84.7781 28.1332 84.3902 28.056C84.0022 27.9788 83.6001 28.0184 83.2346 28.1698C82.8692 28.3212 82.5568 28.5775 82.3371 28.9064C82.1173 29.2353 82 29.622 82 30.0176C82.0006 30.5478 82.2115 31.0562 82.5865 31.4311C82.9614 31.8061 83.4698 32.017 84 32.0176ZM84 29.0176C84.1978 29.0176 84.3911 29.0762 84.5556 29.1861C84.72 29.296 84.8482 29.4522 84.9239 29.6349C84.9996 29.8176 85.0194 30.0187 84.9808 30.2127C84.9422 30.4067 84.847 30.5848 84.7071 30.7247C84.5673 30.8645 84.3891 30.9598 84.1951 30.9984C84.0011 31.037 83.8 31.0171 83.6173 30.9415C83.4346 30.8658 83.2784 30.7376 83.1685 30.5732C83.0587 30.4087 83 30.2154 83 30.0176C83.0003 29.7524 83.1057 29.4982 83.2932 29.3108C83.4807 29.1233 83.7349 29.0178 84 29.0176ZM59.3333 8.13576C59.0696 8.13576 58.8118 8.21396 58.5926 8.36047C58.3733 8.50698 58.2024 8.71522 58.1015 8.95885C58.0006 9.20249 57.9742 9.47057 58.0256 9.72922C58.0771 9.98786 58.2041 10.2254 58.3905 10.4119C58.577 10.5984 58.8146 10.7254 59.0732 10.7768C59.3319 10.8283 59.5999 10.8019 59.8436 10.7009C60.0872 10.6 60.2955 10.4291 60.442 10.2099C60.5885 9.99059 60.6667 9.7328 60.6667 9.4691C60.6663 9.1156 60.5257 8.77669 60.2757 8.52673C60.0257 8.27677 59.6868 8.13617 59.3333 8.13576ZM59.3333 10.1358C59.2015 10.1358 59.0726 10.0967 58.963 10.0234C58.8533 9.95015 58.7679 9.84604 58.7174 9.72422C58.667 9.6024 58.6538 9.46836 58.6795 9.33904C58.7052 9.20971 58.7687 9.09093 58.8619 8.99769C58.9552 8.90446 59.074 8.84096 59.2033 8.81524C59.3326 8.78952 59.4666 8.80272 59.5885 8.85318C59.7103 8.90363 59.8144 8.98908 59.8876 9.09872C59.9609 9.20835 60 9.33724 60 9.4691C59.9998 9.64585 59.9295 9.81532 59.8045 9.9403C59.6796 10.0653 59.5101 10.1356 59.3333 10.1358ZM14.6667 39.6054C14.403 39.6054 14.1452 39.6836 13.9259 39.8301C13.7066 39.9766 13.5357 40.1849 13.4348 40.4285C13.3339 40.6721 13.3075 40.9402 13.359 41.1989C13.4104 41.4575 13.5374 41.6951 13.7239 41.8816C13.9103 42.068 14.1479 42.195 14.4065 42.2465C14.6652 42.2979 14.9333 42.2715 15.1769 42.1706C15.4205 42.0697 15.6288 41.8988 15.7753 41.6795C15.9218 41.4603 16 41.2025 16 40.9388C15.9996 40.5853 15.859 40.2464 15.609 39.9964C15.3591 39.7464 15.0202 39.6058 14.6667 39.6054ZM14.6667 41.6054C14.5348 41.6054 14.4059 41.5663 14.2963 41.4931C14.1867 41.4198 14.1012 41.3157 14.0507 41.1939C14.0003 41.0721 13.9871 40.938 14.0128 40.8087C14.0385 40.6794 14.102 40.5606 14.1953 40.4674C14.2885 40.3741 14.4073 40.3106 14.5366 40.2849C14.6659 40.2592 14.8 40.2724 14.9218 40.3228C15.0436 40.3733 15.1477 40.4587 15.221 40.5684C15.2942 40.678 15.3333 40.8069 15.3333 40.9388C15.3332 41.1155 15.2629 41.285 15.1379 41.41C15.0129 41.535 14.8434 41.6053 14.6667 41.6054ZM103.333 6.34528C103.07 6.34528 102.812 6.42348 102.593 6.56999C102.373 6.7165 102.202 6.92474 102.101 7.16837C102.001 7.41201 101.974 7.68009 102.026 7.93874C102.077 8.19738 102.204 8.43495 102.391 8.62142C102.577 8.80789 102.815 8.93488 103.073 8.98633C103.332 9.03778 103.6 9.01137 103.844 8.91045C104.087 8.80954 104.295 8.63864 104.442 8.41938C104.588 8.20011 104.667 7.94232 104.667 7.67862C104.666 7.32512 104.526 6.98621 104.276 6.73625C104.026 6.48629 103.687 6.34569 103.333 6.34528ZM103.333 8.34528C103.201 8.34528 103.073 8.30618 102.963 8.23293C102.853 8.15967 102.768 8.05556 102.717 7.93374C102.667 7.81192 102.654 7.67788 102.679 7.54856C102.705 7.41923 102.769 7.30045 102.862 7.20721C102.955 7.11398 103.074 7.05048 103.203 7.02476C103.333 6.99904 103.467 7.01224 103.588 7.0627C103.71 7.11315 103.814 7.1986 103.888 7.30824C103.961 7.41787 104 7.54676 104 7.67862C104 7.85537 103.93 8.02484 103.805 8.14983C103.68 8.27481 103.51 8.34511 103.333 8.34528ZM12.6667 3.9388C12.6667 3.67509 12.5885 3.41731 12.442 3.19804C12.2955 2.97878 12.0872 2.80788 11.8436 2.70696C11.5999 2.60605 11.3319 2.57964 11.0732 2.63109C10.8146 2.68254 10.577 2.80952 10.3905 2.99599C10.2041 3.18246 10.0771 3.42004 10.0256 3.67868C9.97417 3.93732 10.0006 4.20541 10.1015 4.44905C10.2024 4.69268 10.3733 4.90092 10.5926 5.04743C10.8118 5.19394 11.0696 5.27214 11.3333 5.27214C11.6868 5.27173 12.0257 5.13113 12.2757 4.88117C12.5257 4.6312 12.6663 4.2923 12.6667 3.9388ZM10.6667 3.9388C10.6667 3.80695 10.7058 3.67806 10.779 3.56842C10.8523 3.45879 10.9564 3.37334 11.0782 3.32288C11.2 3.27242 11.3341 3.25922 11.4634 3.28495C11.5927 3.31067 11.7115 3.37416 11.8047 3.4674C11.898 3.56063 11.9615 3.67942 11.9872 3.80874C12.0129 3.93806 11.9997 4.07211 11.9493 4.19392C11.8988 4.31574 11.8133 4.41986 11.7037 4.49312C11.5941 4.56637 11.4652 4.60547 11.3333 4.60547C11.1566 4.60529 10.9871 4.535 10.8621 4.41001C10.7371 4.28503 10.6668 4.11556 10.6667 3.9388Z" fill="#333333" stroke="#F4ECFE" mask="url(#path-11-inside-1_609_62262)"/>
<path d="M2.94343 29.8501L3.93476 28.5461L3.30876 28.1914L2.67276 29.6514H2.65143L2.00543 28.2021L1.3681 28.5674L2.34943 29.8401V29.8607L0.81543 29.6621V30.3714L2.35943 30.1734V30.1941L1.3681 31.4667L1.96276 31.8427L2.64143 30.3714H2.66143L3.28743 31.8321L3.94476 31.4567L2.94343 30.2047V30.1841L4.5181 30.3714V29.6621L2.94343 29.8707V29.8501Z" fill="#9642F4"/>
<path d="M28.2223 15.042L27.6517 15.7747L27.9937 15.9907L28.3843 15.1433H28.3963L28.757 15.9847L29.1357 15.7687L28.559 15.0473V15.0353L29.4657 15.1433V14.7353L28.559 14.8553V14.8433L29.1297 14.0927L28.769 13.8887L28.4023 14.7293H28.3903L28.0183 13.894L27.6517 14.1047L28.2163 14.8373V14.8493L27.333 14.7353V15.1433L28.2223 15.03V15.042Z" fill="#9642F4"/>
<path d="M105.632 35.9525V35.2565L104.088 35.4611V35.4405L105.06 34.1618L104.446 33.8145L103.822 35.2465H103.801L103.167 33.8245L102.542 34.1825L103.505 35.4305V35.4511L102 35.2565V35.9525L103.515 35.7585V35.7785L102.542 37.0265L103.125 37.3951L103.791 35.9525H103.811L104.425 37.3845L105.07 37.0165L104.088 35.7885V35.7685L105.632 35.9525Z" fill="#9642F4"/>
<path d="M82.2343 3.7972L83.0729 2.69453L82.5436 2.39453L82.0056 3.62986H81.9876L81.4403 2.4032L80.9016 2.71186L81.7316 3.78853V3.80653L80.4336 3.63853V4.23853L81.7403 4.0712V4.08853L80.9016 5.1652L81.4043 5.4832L81.9789 4.23853H81.9963L82.5256 5.47453L83.0816 5.15653L82.2343 4.0972V4.07986L83.5669 4.23853V3.63853L82.2343 3.8152V3.7972Z" fill="#9642F4"/>
</svg>
